<?xml version="1.0" encoding="utf-8"?>
<!-- Generator: Adobe Illustrator 14.0.0, SVG Export Plug-In  -->
<!DOCTYPE svg PUBLIC "-//W3C//DTD SVG 1.1//EN" "http://www.w3.org/Graphics/SVG/1.1/DTD/svg11.dtd" [
	<!ENTITY ns_flows "http://ns.adobe.com/Flows/1.0/">
]>
<svg version="1.1"
	 xmlns="http://www.w3.org/2000/svg" xmlns:xlink="http://www.w3.org/1999/xlink" xmlns:a="http://ns.adobe.com/AdobeSVGViewerExtensions/3.0/"
	 x="0px" y="0px" width="360px" height="124px" viewBox="0 0 360 124" enable-background="new 0 0 360 124" xml:space="preserve">
<defs>
</defs>
<g>
	<defs>
		<rect id="SVGID_1_" width="359.914" height="124.415"/>
	</defs>
	<clipPath id="SVGID_2_">
		<use xlink:href="#SVGID_1_"  overflow="visible"/>
	</clipPath>
	<path clip-path="url(#SVGID_2_)" fill="#FFFFFF" d="M71.996,65.062H59.699l6.149-15.639L71.996,65.062z M78.584,81.866h9.412
		l-16.941-41.37H61.016l-17.065,41.37h9.16l3.702-9.453h18.069L78.584,81.866z M122.001,58.993h-7.027V47.498h7.027
		c4.392,0,6.964,2.275,6.964,5.776C128.965,56.659,126.393,58.993,122.001,58.993 M137.875,81.866l-9.537-16.922
		c5.835-1.575,9.474-5.951,9.474-11.729c0-7.177-5.521-12.72-14.18-12.72h-17.379v41.37h8.721v-15.93h4.517l8.721,15.93H137.875z
		 M176.712,48.139h14.054v-7.643h-36.829v7.643h14.054v33.728h8.721V48.139z M279.859,40.496h-10.164l15.496,23.98v17.39h8.658
		v-17.39l15.686-23.98h-9.725l-9.976,16.396L279.859,40.496z M232.238,67.803l-8.031,1.985c0.689,5.893,5.898,12.953,17.693,12.953
		c10.353,0,16.062-6.418,16.062-12.779c0-5.835-4.329-10.736-12.423-12.195l-6.211-1.107c-3.264-0.584-4.831-2.394-4.831-4.668
		c0-2.743,2.76-5.252,6.964-5.252c5.646,0,7.655,3.559,8.094,5.835l7.78-2.217c-1.004-4.668-5.146-10.737-15.937-10.737
		c-8.407,0-15.498,5.602-15.498,12.954c0,6.243,4.58,10.503,11.67,11.845l6.213,1.167c3.449,0.643,5.395,2.509,5.395,4.902
		c0,2.917-2.572,5.076-7.215,5.076C235.689,75.564,232.613,71.888,232.238,67.803 M351.398,115.898h-144.41V98.866h-8.887v17.032
		H8.517V9.257h342.881V115.898z M359.914,0H0v124.415h359.914V0z"/>
</g>
</svg>
