<?xml version="1.0" encoding="utf-8"?>
<!-- Generator: Adobe Illustrator 15.0.0, SVG Export Plug-In . SVG Version: 6.00 Build 0)  -->
<!DOCTYPE svg PUBLIC "-//W3C//DTD SVG 1.1//EN" "http://www.w3.org/Graphics/SVG/1.1/DTD/svg11.dtd">
<svg version="1.1" id="Layer_1" xmlns="http://www.w3.org/2000/svg" xmlns:xlink="http://www.w3.org/1999/xlink" x="0px" y="0px"
	 width="200px" height="116px" viewBox="0 0 200 116" enable-background="new 0 0 200 116" xml:space="preserve">
<g>
	<path fill="#A7A6A6" d="M20.735,49.763h0.829c3.548,0,5.736-2.056,5.736-5.936V38.19c0-3.878-1.957-5.902-5.67-5.902h-0.928
		c-3.515,0-5.67,1.857-5.67,5.936v5.604C15.032,47.707,16.855,49.763,20.735,49.763L20.735,49.763z M21.166,45.552
		c-0.531,0-0.663-0.398-0.663-1.028v-7.095c0-0.597,0.099-1.028,0.663-1.028c0.563,0,0.663,0.431,0.663,1.028v7.095
		C21.829,45.188,21.696,45.552,21.166,45.552L21.166,45.552z M39.103,37.428v-1.526c0-2.254-1.426-3.58-4.542-3.58h-1.293
		c-3.316,0-4.841,1.625-4.841,4.078v0.696c0,2.122,0.829,3.383,2.586,4.51l2.453,1.625c0.563,0.431,0.796,0.762,0.796,1.36v0.629
		c0,0.464-0.199,0.696-0.531,0.696h-0.1c-0.365,0-0.563-0.199-0.563-0.696v-1.824h-4.841v2.222c0,2.355,1.393,4.079,4.609,4.079
		h1.591c2.984,0,5.006-1.691,5.006-4.708v-0.895c0-2.42-1.095-3.581-2.619-4.609l-2.852-1.956c-0.431-0.299-0.597-0.498-0.597-0.928
		v-0.531c0-0.364,0.133-0.597,0.498-0.597h0.1c0.332,0,0.464,0.232,0.464,0.63v1.326H39.103L39.103,37.428z M46.597,41.374h-1.293
		l0.63-6.333L46.597,41.374L46.597,41.374z M44.806,46.181h2.289l0.332,3.15h5.405L49.547,26.32h-6.896l-2.985,23.011h4.841
		L44.806,46.181L44.806,46.181z M53.659,49.332h5.438V37.628c0-0.532,0.101-0.929,0.697-0.929c0.53,0,0.63,0.397,0.63,0.862v11.771
		h5.537V35.737c0-1.161-0.696-3.216-2.851-3.216H62.71c-1.558,0-2.751,1.094-3.713,2.354v-2.189h-5.338V49.332L53.659,49.332z
		 M84.857,36.731c0-0.663,0.099-0.994,0.63-0.994c0.563,0,0.63,0.265,0.63,0.994v1.792h-1.26V36.731L84.857,36.731z M91.223,44.689
		v-1.956h-5.139v2.321c0,0.498-0.099,0.862-0.597,0.862c-0.465,0-0.63-0.265-0.63-0.862v-3.448h6.366v-3.979
		c0-3.748-2.188-5.272-5.172-5.272h-1.127c-3.548,0-5.372,2.088-5.372,5.304v6.864c0,3.515,2.089,5.173,5.306,5.173h1.16
		C89.167,49.697,91.223,47.873,91.223,44.689L91.223,44.689z M97.688,26.32H92.25v23.011h5.438V26.32L97.688,26.32z M103.988,36.731
		c0-0.663,0.1-0.994,0.629-0.994c0.564,0,0.631,0.265,0.631,0.994v1.792h-1.26V36.731L103.988,36.731z M110.354,44.689v-1.956
		h-5.138v2.321c0,0.498-0.1,0.862-0.599,0.862c-0.464,0-0.629-0.265-0.629-0.862v-3.448h6.365v-3.979
		c0-3.748-2.188-5.272-5.172-5.272h-1.127c-3.549,0-5.372,2.088-5.372,5.304v6.864c0,3.515,2.088,5.173,5.306,5.173h1.16
		C108.299,49.697,110.354,47.873,110.354,44.689L110.354,44.689z M122.157,37.428v-1.526c0-2.254-1.425-3.58-4.541-3.58h-1.295
		c-3.315,0-4.841,1.625-4.841,4.078v0.696c0,2.122,0.831,3.383,2.587,4.51l2.453,1.625c0.564,0.431,0.795,0.762,0.795,1.36v0.629
		c0,0.464-0.198,0.696-0.53,0.696h-0.097c-0.367,0-0.565-0.199-0.565-0.696v-1.824h-4.841v2.222c0,2.355,1.392,4.079,4.609,4.079
		h1.592c2.984,0,5.006-1.691,5.006-4.708v-0.895c0-2.42-1.094-3.581-2.619-4.609l-2.851-1.956c-0.433-0.299-0.598-0.498-0.598-0.928
		v-0.531c0-0.364,0.133-0.597,0.496-0.597h0.102c0.332,0,0.464,0.232,0.464,0.63v1.326H122.157L122.157,37.428z"/>
	<path fill="#1D1D1B" d="M9.261,9.129H14.6V6.675C14.6,3.824,13.008,2,9.162,2h-1.26C4.056,2,2.199,4.056,2.199,7.173v1.16
		c0,2.752,0.961,4.41,2.685,5.736l2.984,2.355c1.061,0.862,1.127,1.326,1.127,2.453v0.896c0,0.696-0.133,1.127-0.663,1.127H8.267
		c-0.563,0-0.696-0.397-0.696-1.094v-2.884H2v3.515c0,3.515,2.022,5.172,5.703,5.172h1.359c3.647,0,5.902-2.354,5.902-5.902v-1.923
		c0-2.388-0.829-4.046-2.719-5.604L8.598,9.261c-0.63-0.53-0.729-0.928-0.729-1.625V6.908c0-0.531,0.133-0.862,0.696-0.862
		c0.53,0,0.696,0.365,0.696,0.862V9.129L9.261,9.129z M15.992,25.31h5.438V13.572c0-0.498,0.099-0.895,0.696-0.895
		c0.53,0,0.63,0.397,0.63,0.829V25.31h5.537V11.649c0-1.326-0.829-3.15-2.852-3.15h-0.397c-1.757,0-2.819,1.193-3.714,2.321V2.298
		h-5.338V25.31L15.992,25.31z M41.92,8.665h-5.438v11.472c0,0.498-0.1,0.896-0.629,0.896c-0.498,0-0.597-0.398-0.597-0.862V8.665
		h-5.504c0,0-0.033,12.434,0,13.595c0,1.227,0.829,3.183,2.786,3.183h0.364c1.559,0,2.521-0.995,3.681-2.388v2.255h5.338V8.665
		L41.92,8.665z M48.651,2.298h-5.438V25.31h5.438V2.298L48.651,2.298z M68.445,25.31V13.671c0-0.498,0.1-0.895,0.597-0.895
		c0.531,0,0.597,0.365,0.597,0.895V25.31h5.504V13.671c0-0.498,0.133-0.895,0.63-0.895c0.498,0,0.597,0.365,0.597,0.895V25.31h5.504
		V11.715c0-1.161-0.763-3.216-2.819-3.216h-0.364c-1.657,0-2.785,1.193-3.68,2.288c-0.299-1.094-1.094-2.288-2.752-2.288h-0.364
		c-1.658,0-2.719,1.392-3.548,2.354V8.665h-5.338V25.31H68.445L68.445,25.31z M88.605,3.426h-5.438v4.576h5.438V3.426L88.605,3.426z
		 M83.167,25.31h5.438V8.665h-5.438V25.31L83.167,25.31z M100.542,2.298V25.31h4.774V13.605l2.984,11.705h4.974V2.298h-4.742v10.81
		l-2.52-10.81H100.542L100.542,2.298z M127.697,8.665v4.211h3.614l-3.813,8.521v3.913h9.715v-4.443h-3.813l3.647-8.289V8.665
		H127.697L127.697,8.665z M156.875,8.665h-5.337V25.31h5.437V13.108c0-0.332,0.067-0.563,0.364-0.563h0.066
		c0.299,0,0.365,0.232,0.365,0.563v3.846h4.808v-6.035c0-1.293-0.697-2.387-2.188-2.387h-0.331c-1.625,0-2.588,1.525-3.184,2.355
		V8.665L156.875,8.665z M169.175,3.426h-5.437v4.576h5.437V3.426L169.175,3.426z M163.738,25.31h5.437V8.665h-5.437V25.31
		L163.738,25.31z M183.699,25.31h5.438V13.605c0-0.531,0.1-0.928,0.696-0.928c0.531,0,0.63,0.397,0.63,0.862V25.31H196V11.715
		c0-1.161-0.696-3.216-2.852-3.216h-0.397c-1.559,0-2.752,1.094-3.713,2.354V8.665h-5.339V25.31L183.699,25.31z"/>
	<path fill="#1D1D1B" d="M61.946,25.296v-4.311h-0.464c-0.232,0-0.332-0.1-0.332-0.332v-8.223c0-2.818-1.923-4.111-5.371-4.111
		h-0.763c-3.282,0-5.139,1.426-5.139,3.846v1.724h4.807v-1.392c0-0.431,0.133-0.663,0.531-0.663h0.167
		c0.364,0,0.53,0.199,0.53,0.663v0.763c0,0.332-0.066,0.397-0.332,0.53c-0.298,0.166-3.481,1.591-3.747,1.757
		c-1.559,0.763-2.155,1.758-2.155,3.217v3.481c0,1.592,0.589,3.256,2.799,3.256h1.091c1.63,0,2.243-1.008,2.509-1.797
		c0.464,1.393,0.961,1.592,1.525,1.592H61.946L61.946,25.296z M55.912,21.417c0,0.431-0.166,0.729-0.564,0.729
		c-0.397,0-0.53-0.265-0.53-0.629v-2.454c0-0.563,0-0.895,0.365-1.127c0.231-0.166,0.497-0.332,0.729-0.497V21.417L55.912,21.417z"
		/>
	<path fill="#1D1D1B" d="M99.58,20.8h-1.492c-0.464,0-0.531-0.166-0.531-0.597v-7.095h2.022V8.665h-2.022V3.161H92.12v5.504h-2.488
		v4.443h2.488v9.814c0,1.625,0.961,2.387,2.022,2.387h5.438V20.8L99.58,20.8z"/>
	<path fill="#1D1D1B" d="M126.503,25.296v-4.311h-0.464c-0.231,0-0.332-0.1-0.332-0.332v-8.223c0-2.818-1.922-4.111-5.37-4.111
		h-0.763c-3.282,0-5.141,1.426-5.141,3.846v1.724h4.809v-1.392c0-0.431,0.133-0.663,0.53-0.663h0.166
		c0.364,0,0.531,0.199,0.531,0.663v0.763c0,0.332-0.066,0.397-0.332,0.53c-0.299,0.166-3.483,1.591-3.748,1.757
		c-1.557,0.763-2.153,1.758-2.153,3.217v3.481c0,1.592,0.589,3.256,2.797,3.256h1.093c1.629,0,2.243-1.008,2.509-1.797
		c0.465,1.393,0.962,1.592,1.524,1.592H126.503L126.503,25.296z M120.47,21.417c0,0.431-0.167,0.729-0.564,0.729
		c-0.398,0-0.53-0.265-0.53-0.629v-2.454c0-0.563,0-0.895,0.365-1.127c0.231-0.166,0.497-0.332,0.729-0.497V21.417L120.47,21.417z"
		/>
	<path fill="#1D1D1B" d="M150.476,25.296v-4.311h-0.463c-0.233,0-0.333-0.1-0.333-0.332v-8.223c0-2.818-1.921-4.111-5.372-4.111
		h-0.763c-3.282,0-5.139,1.426-5.139,3.846v1.724h4.808v-1.392c0-0.431,0.133-0.663,0.53-0.663h0.166
		c0.365,0,0.531,0.199,0.531,0.663v0.763c0,0.332-0.067,0.397-0.332,0.53c-0.299,0.166-3.481,1.591-3.746,1.757
		c-1.559,0.763-2.156,1.758-2.156,3.217v3.481c0,1.592,0.59,3.256,2.8,3.256h1.092c1.628,0,2.243-1.008,2.508-1.797
		c0.464,1.393,0.963,1.592,1.525,1.592H150.476L150.476,25.296z M144.441,21.417c0,0.431-0.166,0.729-0.564,0.729
		c-0.397,0-0.53-0.265-0.53-0.629v-2.454c0-0.563,0-0.895,0.364-1.127c0.232-0.166,0.498-0.332,0.73-0.497V21.417L144.441,21.417z"
		/>
	<path fill="#1D1D1B" d="M182.639,25.296v-4.311h-0.465c-0.232,0-0.331-0.1-0.331-0.332v-8.223c0-2.818-1.923-4.111-5.372-4.111
		h-0.764c-3.281,0-5.139,1.426-5.139,3.846v1.724h4.808v-1.392c0-0.431,0.133-0.663,0.53-0.663h0.168
		c0.362,0,0.529,0.199,0.529,0.663v0.763c0,0.332-0.066,0.397-0.33,0.53c-0.301,0.166-3.483,1.591-3.748,1.757
		c-1.558,0.763-2.156,1.758-2.156,3.217v3.481c0,1.592,0.59,3.256,2.8,3.256h1.092c1.629,0,2.243-1.008,2.508-1.797
		c0.464,1.393,0.962,1.592,1.525,1.592H182.639L182.639,25.296z M176.604,21.417c0,0.431-0.167,0.729-0.565,0.729
		c-0.396,0-0.529-0.265-0.529-0.629v-2.454c0-0.563,0-0.895,0.366-1.127c0.23-0.166,0.495-0.332,0.729-0.497V21.417L176.604,21.417z
		"/>
	<polygon fill="#A7A6A6" points="3.326,26.752 3.326,49.421 13.904,49.421 13.904,44.148 8.896,44.148 8.896,26.752 3.326,26.752 	
		"/>
	<path fill="#A7A6A6" d="M73.785,37.368v7.692c0,0.431-0.166,0.862-0.63,0.862c-0.53,0-0.63-0.397-0.63-0.862v-7.692
		c0-0.464,0.132-0.896,0.663-0.896C73.686,36.473,73.785,36.938,73.785,37.368L73.785,37.368z M73.851,50.863
		c0,0.465-0.232,0.697-0.597,0.697h-0.166c-0.431,0-0.531-0.267-0.531-0.664v-0.597h-5.305v1.492c0,1.857,1.425,3.581,5.305,3.581
		h1.056c3.681,0,4.977-1.857,4.977-4.509v-18.17h-4.739v2.023c-0.795-0.961-1.824-2.155-3.481-2.155h-0.2
		c-2.122,0-3.15,1.923-3.15,4.011v9.185c0,2.42,1.492,3.912,3.449,3.912c1.592,0,2.686-1.26,3.382-2.155V50.863L73.851,50.863z"/>
</g>
<g>
	<path fill="#A7A6A6" d="M22.016,104.398h0.827c3.551,0,5.74-2.055,5.74-5.94v-5.636c0-3.883-1.954-5.902-5.669-5.902h-0.927
		c-3.515,0-5.676,1.853-5.676,5.94v5.598C16.311,102.344,18.137,104.398,22.016,104.398L22.016,104.398z M22.451,100.182
		c-0.535,0-0.663-0.399-0.663-1.02v-7.102c0-0.598,0.099-1.033,0.663-1.033c0.563,0,0.663,0.436,0.663,1.033v7.102
		C23.114,99.819,22.978,100.182,22.451,100.182L22.451,100.182z M40.383,92.061v-1.526c0-2.252-1.426-3.578-4.542-3.578H34.55
		c-3.316,0-4.841,1.619-4.841,4.071v0.704c0,2.126,0.827,3.381,2.588,4.508l2.453,1.619c0.563,0.436,0.792,0.762,0.792,1.361v0.636
		c0,0.455-0.194,0.69-0.528,0.69h-0.1c-0.364,0-0.563-0.199-0.563-0.69V98.03h-4.842v2.223c0,2.348,1.391,4.074,4.607,4.074h1.597
		c2.98,0,5.005-1.69,5.005-4.707v-0.891c0-2.419-1.099-3.581-2.623-4.614l-2.846-1.962c-0.435-0.293-0.599-0.492-0.599-0.926v-0.528
		c0-0.362,0.129-0.598,0.499-0.598h0.1c0.328,0,0.464,0.235,0.464,0.633v1.326H40.383L40.383,92.061z M47.877,96.004h-1.291
		l0.627-6.324L47.877,96.004L47.877,96.004z M46.087,100.817h2.29l0.328,3.146h5.405l-3.281-23.005h-6.895l-2.988,23.005h4.842
		L46.087,100.817L46.087,100.817z M54.943,103.963h5.433V92.261c0-0.529,0.101-0.927,0.699-0.927c0.528,0,0.628,0.397,0.628,0.855
		v11.773h5.54V90.37c0-1.162-0.699-3.215-2.852-3.215h-0.4c-1.555,0-2.752,1.091-3.715,2.346v-2.183h-5.334V103.963L54.943,103.963z
		 M86.137,91.367c0-0.668,0.099-0.997,0.634-0.997c0.563,0,0.627,0.268,0.627,0.997v1.786h-1.262V91.367L86.137,91.367z
		 M92.504,99.327v-1.962h-5.141v2.326c0,0.49-0.1,0.854-0.592,0.854c-0.464,0-0.634-0.257-0.634-0.854v-3.452h6.367v-3.979
		c0-3.743-2.189-5.27-5.17-5.27h-1.127c-3.551,0-5.376,2.088-5.376,5.305v6.866c0,3.51,2.089,5.165,5.306,5.165h1.162
		C90.451,104.327,92.504,102.508,92.504,99.327L92.504,99.327z M98.972,80.958H93.53v23.005h5.441V80.958L98.972,80.958z
		 M105.272,91.367c0-0.668,0.096-0.997,0.624-0.997c0.563,0,0.634,0.268,0.634,0.997v1.786h-1.258V91.367L105.272,91.367z
		 M111.635,99.327v-1.962h-5.14v2.326c0,0.49-0.095,0.854-0.599,0.854c-0.458,0-0.624-0.257-0.624-0.854v-3.452h6.362v-3.979
		c0-3.743-2.183-5.27-5.175-5.27h-1.125c-3.548,0-5.373,2.088-5.373,5.305v6.866c0,3.51,2.09,5.165,5.31,5.165h1.163
		C109.582,104.327,111.635,102.508,111.635,99.327L111.635,99.327z M123.442,92.061v-1.526c0-2.252-1.432-3.578-4.54-3.578h-1.293
		c-3.322,0-4.849,1.619-4.849,4.071v0.704c0,2.126,0.837,3.381,2.582,4.508l2.465,1.619c0.565,0.436,0.785,0.762,0.785,1.361v0.636
		c0,0.455-0.198,0.69-0.527,0.69h-0.09c-0.366,0-0.565-0.199-0.565-0.69V98.03h-4.848v2.223c0,2.348,1.396,4.074,4.613,4.074h1.584
		c2.994,0,5.012-1.69,5.012-4.707v-0.891c0-2.419-1.091-3.581-2.617-4.614l-2.851-1.962c-0.437-0.293-0.601-0.492-0.601-0.926
		v-0.528c0-0.362,0.129-0.598,0.491-0.598h0.109c0.328,0,0.456,0.235,0.456,0.633v1.326H123.442L123.442,92.061z"/>
	<path fill="#FFFFFF" d="M10.541,63.757h5.341v-2.452c0-2.853-1.59-4.672-5.44-4.672H9.186c-3.85,0-5.704,2.054-5.704,5.177v1.162
		c0,2.745,0.963,4.399,2.688,5.726l2.981,2.361c1.062,0.856,1.127,1.326,1.127,2.452v0.892c0,0.701-0.129,1.127-0.663,1.127H9.55
		c-0.563,0-0.698-0.399-0.698-1.092v-2.887H3.282v3.521c0,3.509,2.025,5.163,5.705,5.163h1.355c3.651,0,5.904-2.346,5.904-5.891
		V72.42c0-2.396-0.827-4.051-2.717-5.611l-3.651-2.909C9.25,63.357,9.15,62.972,9.15,62.267V61.54c0-0.529,0.136-0.857,0.699-0.857
		c0.528,0,0.692,0.364,0.692,0.857V63.757L10.541,63.757z M17.272,79.943h5.441V68.206c0-0.493,0.099-0.892,0.698-0.892
		c0.528,0,0.628,0.398,0.628,0.82v11.809h5.533V66.28c0-1.326-0.828-3.145-2.846-3.145h-0.398c-1.761,0-2.822,1.184-3.715,2.312
		v-8.521h-5.341V79.943L17.272,79.943z M43.205,63.299h-5.44v11.467c0,0.507-0.1,0.905-0.627,0.905
		c-0.499,0-0.599-0.398-0.599-0.869V63.299h-5.505c0,0-0.035,12.43,0,13.593c0,1.233,0.828,3.18,2.789,3.18h0.363
		c1.555,0,2.518-0.989,3.68-2.382v2.254h5.34V63.299L43.205,63.299z M49.935,56.926h-5.438v23.018h5.438V56.926L49.935,56.926z
		 M69.73,79.943V68.3c0-0.493,0.099-0.893,0.592-0.893c0.535,0,0.6,0.363,0.6,0.893v11.644h5.504V68.3
		c0-0.493,0.129-0.893,0.627-0.893c0.5,0,0.599,0.363,0.599,0.893v11.644h5.505V66.352c0-1.162-0.763-3.216-2.817-3.216h-0.37
		c-1.653,0-2.781,1.184-3.679,2.289c-0.3-1.105-1.091-2.289-2.753-2.289h-0.363c-1.655,0-2.717,1.383-3.545,2.346v-2.183h-5.34
		v16.645H69.73L69.73,79.943z M89.889,58.053h-5.441v4.578h5.441V58.053L89.889,58.053z M84.448,79.943h5.441V63.299h-5.441V79.943
		L84.448,79.943z M101.827,56.926v23.018h4.774V68.242l2.982,11.701h4.978V56.926h-4.743v10.81l-2.523-10.81H101.827L101.827,56.926
		z M128.983,63.299v4.216h3.604l-3.802,8.52v3.909h9.705v-4.45h-3.815l3.651-8.285v-3.909H128.983L128.983,63.299z M158.158,63.299
		h-5.334v16.645h5.433V67.735c0-0.328,0.072-0.562,0.363-0.562h0.071c0.293,0,0.364,0.234,0.364,0.562v3.85h4.799v-6.032
		c0-1.29-0.692-2.385-2.182-2.385h-0.328c-1.633,0-2.597,1.516-3.187,2.351V63.299L158.158,63.299z M170.463,58.053h-5.446v4.578
		h5.446V58.053L170.463,58.053z M165.017,79.943h5.446V63.299h-5.446V79.943L165.017,79.943z M184.982,79.943h5.434V68.242
		c0-0.529,0.106-0.928,0.705-0.928c0.529,0,0.621,0.398,0.621,0.856v11.772h5.54V66.352c0-1.162-0.691-3.216-2.853-3.216h-0.398
		c-1.562,0-2.745,1.091-3.707,2.346v-2.183h-5.342V79.943L184.982,79.943z"/>
	<path fill="#FFFFFF" d="M63.228,79.93v-4.308h-0.464c-0.23,0-0.328-0.106-0.328-0.329v-8.228c0-2.816-1.925-4.107-5.376-4.107
		h-0.763c-3.28,0-5.134,1.419-5.134,3.836v1.727h4.805v-1.384c0-0.436,0.129-0.67,0.528-0.67h0.165c0.369,0,0.534,0.198,0.534,0.67
		v0.763c0,0.328-0.064,0.386-0.335,0.527c-0.294,0.165-3.48,1.584-3.744,1.751c-1.562,0.76-2.153,1.758-2.153,3.221v3.479
		c0,1.598,0.583,3.259,2.795,3.259h1.095c1.624,0,2.241-1.014,2.505-1.804c0.464,1.397,0.962,1.598,1.526,1.598H63.228L63.228,79.93
		z M57.195,76.051c0,0.427-0.165,0.733-0.564,0.733c-0.398,0-0.534-0.271-0.534-0.635v-2.453c0-0.563,0-0.891,0.371-1.126
		c0.228-0.165,0.491-0.329,0.727-0.498V76.051L57.195,76.051z"/>
	<path fill="#FFFFFF" d="M100.863,75.436h-1.49c-0.465,0-0.535-0.163-0.535-0.599v-7.102h2.025v-4.437h-2.025v-5.504h-5.434v5.504
		h-2.489v4.437h2.489v9.825c0,1.619,0.956,2.383,2.018,2.383h5.44V75.436L100.863,75.436z"/>
	<path fill="#FFFFFF" d="M127.787,79.93v-4.308h-0.47c-0.229,0-0.328-0.106-0.328-0.329v-8.228c0-2.816-1.924-4.107-5.375-4.107
		h-0.764c-3.272,0-5.129,1.419-5.129,3.836v1.727h4.801v-1.384c0-0.436,0.129-0.67,0.527-0.67h0.168c0.373,0,0.539,0.198,0.539,0.67
		v0.763c0,0.328-0.071,0.386-0.343,0.527c-0.293,0.165-3.475,1.584-3.745,1.751c-1.56,0.76-2.145,1.758-2.145,3.221v3.479
		c0,1.598,0.576,3.259,2.794,3.259h1.089c1.624,0,2.241-1.014,2.513-1.804c0.457,1.397,0.963,1.598,1.524,1.598H127.787
		L127.787,79.93z M121.757,76.051c0,0.427-0.166,0.733-0.564,0.733c-0.4,0-0.541-0.271-0.541-0.635v-2.453
		c0-0.563,0-0.891,0.375-1.126c0.224-0.165,0.494-0.329,0.73-0.498V76.051L121.757,76.051z"/>
	<path fill="#FFFFFF" d="M151.754,79.93v-4.308h-0.455c-0.237,0-0.34-0.106-0.34-0.329v-8.228c0-2.816-1.913-4.107-5.367-4.107
		h-0.763c-3.287,0-5.141,1.419-5.141,3.836v1.727h4.812v-1.384c0-0.436,0.129-0.67,0.527-0.67h0.165c0.364,0,0.528,0.198,0.528,0.67
		v0.763c0,0.328-0.067,0.386-0.329,0.527c-0.304,0.165-3.486,1.584-3.742,1.751c-1.562,0.76-2.162,1.758-2.162,3.221v3.479
		c0,1.598,0.592,3.259,2.797,3.259h1.096c1.629,0,2.248-1.014,2.504-1.804c0.47,1.397,0.964,1.598,1.526,1.598H151.754
		L151.754,79.93z M145.722,76.051c0,0.427-0.164,0.733-0.564,0.733c-0.398,0-0.527-0.271-0.527-0.635v-2.453
		c0-0.563,0-0.891,0.363-1.126c0.235-0.165,0.493-0.329,0.729-0.498V76.051L145.722,76.051z"/>
	<path fill="#FFFFFF" d="M183.923,79.93v-4.308h-0.467c-0.235,0-0.327-0.106-0.327-0.329v-8.228c0-2.816-1.925-4.107-5.377-4.107
		h-0.765c-3.285,0-5.14,1.419-5.14,3.836v1.727h4.812v-1.384c0-0.436,0.129-0.67,0.527-0.67h0.167c0.36,0,0.526,0.198,0.526,0.67
		v0.763c0,0.328-0.058,0.386-0.327,0.527c-0.295,0.165-3.482,1.584-3.745,1.751c-1.561,0.76-2.161,1.758-2.161,3.221v3.479
		c0,1.598,0.592,3.259,2.803,3.259h1.097c1.623,0,2.24-1.014,2.507-1.804c0.46,1.397,0.953,1.598,1.517,1.598H183.923L183.923,79.93
		z M177.881,76.051c0,0.427-0.166,0.733-0.565,0.733c-0.397,0-0.526-0.271-0.526-0.635v-2.453c0-0.563,0-0.891,0.365-1.126
		c0.233-0.165,0.503-0.329,0.727-0.498V76.051L177.881,76.051z"/>
	<polygon fill="#A7A6A6" points="4.608,81.38 4.608,104.057 15.184,104.057 15.184,98.788 10.177,98.788 10.177,81.38 4.608,81.38 	
		"/>
	<path fill="#A7A6A6" d="M75.066,91.996v7.701c0,0.42-0.164,0.855-0.628,0.855c-0.534,0-0.631-0.398-0.631-0.855v-7.701
		c0-0.456,0.132-0.892,0.661-0.892C74.966,91.104,75.066,91.576,75.066,91.996L75.066,91.996z M75.133,105.495
		c0,0.471-0.231,0.69-0.596,0.69h-0.164c-0.435,0-0.535-0.257-0.535-0.655v-0.6h-5.305v1.49c0,1.855,1.426,3.579,5.305,3.579h1.057
		c3.68,0,4.974-1.854,4.974-4.505V87.324h-4.736v2.02c-0.794-0.962-1.822-2.146-3.482-2.146H71.45c-2.117,0-3.145,1.924-3.145,4.013
		v9.178c0,2.419,1.49,3.908,3.444,3.908c1.591,0,2.688-1.256,3.383-2.146V105.495L75.133,105.495z"/>
</g>
</svg>
