<?xml version="1.0" encoding="utf-8"?>
<!-- Generator: Adobe Illustrator 15.0.0, SVG Export Plug-In . SVG Version: 6.00 Build 0)  -->
<!DOCTYPE svg PUBLIC "-//W3C//DTD SVG 1.1//EN" "http://www.w3.org/Graphics/SVG/1.1/DTD/svg11.dtd">
<svg version="1.1" id="Layer_1" xmlns="http://www.w3.org/2000/svg" xmlns:xlink="http://www.w3.org/1999/xlink" x="0px" y="0px"
	 width="179.5px" height="48.834px" viewBox="0 0 179.5 48.834" enable-background="new 0 0 179.5 48.834" xml:space="preserve">
<g>
	<defs>
		<rect id="SVGID_1_" x="1.833" y="0.449" width="175.834" height="47.936"/>
	</defs>
	<clipPath id="SVGID_2_">
		<use xlink:href="#SVGID_1_"  overflow="visible"/>
	</clipPath>
	<path clip-path="url(#SVGID_2_)" fill="#CCCCCC" d="M162.229,44.18c0.404,1.218,0.84,1.392,1.334,1.392h3.799v-3.77h-0.406
		c-0.203,0-0.291-0.087-0.291-0.29V34.32c0-2.465-1.682-3.597-4.697-3.597H161.3c-2.871,0-4.494,1.247-4.494,3.364v1.508h4.205
		v-1.218c0-0.377,0.115-0.58,0.463-0.58h0.146c0.318,0,0.463,0.174,0.463,0.58v0.667c0,0.29-0.057,0.348-0.289,0.464
		c-0.262,0.146-3.045,1.392-3.277,1.537c-1.363,0.667-1.885,1.537-1.885,2.812v3.045c0,1.393,1.043,2.9,2.871,2.9h0.086
		C160.837,45.804,161.677,44.847,162.229,44.18 M161.591,42.816c-0.348,0-0.465-0.231-0.465-0.551V40.12c0-0.493,0-0.783,0.32-0.986
		c0.203-0.146,0.434-0.29,0.637-0.435v3.479C162.083,42.556,161.938,42.816,161.591,42.816 M151.034,45.571h4.756V31.014h-4.756
		V45.571z M155.79,26.432h-4.756v4.002h4.756V26.432z M139.29,45.571h4.756V35.335c0-0.464,0.086-0.812,0.609-0.812
		c0.463,0,0.551,0.348,0.551,0.754v10.294h4.842v-11.89c0-1.015-0.607-2.812-2.494-2.812h-0.348c-1.363,0-2.406,0.957-3.248,2.059
		v-1.914h-4.668V45.571z M133.431,31.014h-4.668v14.558h4.756V34.9c0-0.291,0.059-0.494,0.318-0.494h0.059
		c0.262,0,0.318,0.203,0.318,0.494v3.363h4.205v-5.277c0-1.131-0.609-2.088-1.914-2.088h-0.289c-1.422,0-2.262,1.334-2.785,2.059
		V31.014z M122.499,42.266c-0.463,0-0.58-0.348-0.58-0.898V35.16c0-0.521,0.088-0.898,0.58-0.898c0.494,0,0.58,0.377,0.58,0.898
		v6.207C123.079,41.946,122.964,42.266,122.499,42.266 M122.122,45.949h0.725c3.104,0,5.018-1.799,5.018-5.191v-4.93
		c0-3.394-1.711-5.162-4.959-5.162h-0.812c-3.074,0-4.959,1.623-4.959,5.191v4.9C117.134,44.15,118.729,45.949,122.122,45.949
		 M116.438,25.445h-3.77c-1.422,0-2.611,0.899-2.611,2.553v3.016h-1.623V34.9h1.623v10.671h4.758V34.9h1.594v-3.887h-1.594V29.65
		c0-0.318,0.086-0.521,0.492-0.521h1.131V25.445z M102.983,45.571h4.756V31.014h-4.756V45.571z M107.739,26.432h-4.756v4.002h4.756
		V26.432z M102.026,25.445h-4.758v20.126h4.758V25.445z M91.47,44.18c0.406,1.218,0.84,1.392,1.334,1.392h3.799v-3.77h-0.406
		c-0.203,0-0.289-0.087-0.289-0.29V34.32c0-2.465-1.684-3.597-4.699-3.597h-0.666c-2.871,0-4.496,1.247-4.496,3.364v1.508h4.205
		v-1.218c0-0.377,0.117-0.58,0.465-0.58h0.145c0.318,0,0.465,0.174,0.465,0.58v0.667c0,0.29-0.059,0.348-0.291,0.464
		c-0.26,0.146-3.045,1.392-3.277,1.537c-1.363,0.667-1.885,1.537-1.885,2.812v3.045c0,1.393,1.045,2.9,2.871,2.9h0.088
		C90.077,45.804,90.919,44.847,91.47,44.18 M90.831,42.816c-0.348,0-0.463-0.231-0.463-0.551V40.12c0-0.493,0-0.783,0.318-0.986
		c0.203-0.146,0.436-0.29,0.639-0.435v3.479C91.325,42.556,91.179,42.816,90.831,42.816 M79.61,41.628
		c-0.494,0-0.639-0.377-0.639-1.016V30.23c0-0.638,0.145-0.898,0.639-0.898c0.521,0,0.637,0.318,0.637,0.898v2.959h4.814v-3.133
		c0-2.842-1.422-4.843-5.018-4.843h-0.928c-3.77,0-5.219,2.349-5.219,5.423v9.628c0,3.394,1.391,5.597,5.336,5.597h0.811
		c3.654,0,5.018-2.465,5.018-5.074v-3.944h-4.814v3.77C80.247,41.222,80.132,41.628,79.61,41.628 M68.619,48.385
		c0.434-0.841,1.014-2.291,1.014-3.973V40.99h-4.146v4.581h1.566c-0.029,0.957-0.349,2.03-0.552,2.813H68.619z M64.674,41.512
		v-1.711H60.18v2.03c0,0.435-0.088,0.754-0.522,0.754c-0.406,0-0.552-0.232-0.552-0.754v-3.017h5.568v-3.479
		c0-3.277-1.914-4.611-4.523-4.611h-0.986c-3.104,0-4.698,1.827-4.698,4.64v6.004c0,3.073,1.827,4.523,4.64,4.523h1.016
		C62.876,45.891,64.674,44.296,64.674,41.512 M59.106,34.552c0-0.58,0.088-0.87,0.552-0.87c0.493,0,0.551,0.232,0.551,0.87v1.565
		h-1.103V34.552z M49.42,39.018v2.727c0,0.405-0.145,0.638-0.492,0.638c-0.349,0-0.465-0.232-0.465-0.667v-7.047
		c0-0.406,0.116-0.639,0.465-0.639c0.377,0,0.492,0.232,0.492,0.668v2.146h4.264v-2.088c0-2.291-1.103-4.002-4.205-4.002h-1.248
		c-3.276,0-4.523,2.088-4.523,4.61v6.032c0,3.017,1.798,4.495,4.553,4.495h1.16c2.668,0,4.264-1.682,4.264-4.06v-2.813H49.42z
		 M37.501,45.571h4.756V31.014h-4.756V45.571z M42.257,26.432h-4.756v4.002h4.756V26.432z M25.757,45.571h4.757V35.335
		c0-0.464,0.086-0.812,0.608-0.812c0.464,0,0.551,0.348,0.551,0.754v10.294h4.843v-11.89c0-1.015-0.608-2.812-2.494-2.812h-0.348
		c-1.363,0-2.406,0.957-3.248,2.059v-1.914h-4.669V45.571z M24.858,41.512v-1.711h-4.495v2.03c0,0.435-0.087,0.754-0.522,0.754
		c-0.406,0-0.551-0.232-0.551-0.754v-3.017h5.567v-3.479c0-3.277-1.914-4.611-4.523-4.611h-0.986c-3.103,0-4.698,1.827-4.698,4.64
		v6.004c0,3.073,1.827,4.523,4.64,4.523h1.015C23.061,45.891,24.858,44.296,24.858,41.512 M19.291,34.552
		c0-0.58,0.087-0.87,0.551-0.87c0.493,0,0.551,0.232,0.551,0.87v1.565h-1.102V34.552z M4.877,45.571h6.467l2.842-20.126H9.431
		l-1.16,12.209L7.023,25.445H1.833L4.877,45.571z"/>
	<path clip-path="url(#SVGID_2_)" d="M165.993,22.571h5.16V11.463c0-0.502,0.094-0.881,0.662-0.881c0.502,0,0.598,0.379,0.598,0.818
		v11.171h5.254V9.67c0-1.102-0.66-3.053-2.707-3.053h-0.377c-1.479,0-2.611,1.039-3.523,2.234V6.774h-5.066V22.571z M160.015,21.062
		c0.439,1.321,0.912,1.51,1.447,1.51h4.121v-4.09h-0.439c-0.221,0-0.314-0.095-0.314-0.315v-7.804c0-2.675-1.826-3.901-5.098-3.901
		h-0.725c-3.115,0-4.877,1.353-4.877,3.649v1.636h4.562v-1.32c0-0.409,0.125-0.631,0.504-0.631h0.156
		c0.348,0,0.504,0.189,0.504,0.631v0.723c0,0.314-0.062,0.378-0.314,0.504c-0.283,0.157-3.305,1.51-3.557,1.668
		c-1.479,0.725-2.045,1.668-2.045,3.053v3.303c0,1.512,1.133,3.147,3.115,3.147h0.096C158.503,22.823,159.415,21.785,160.015,21.062
		 M159.321,19.582c-0.377,0-0.504-0.252-0.504-0.598v-2.329c0-0.534,0-0.849,0.348-1.069c0.221-0.158,0.473-0.314,0.691-0.473v3.777
		C159.856,19.299,159.7,19.582,159.321,19.582 M148.183,22.571h5.16V6.774h-5.16V22.571z M153.343,1.803h-5.16v4.344h5.16V1.803z
		 M142.142,6.774h-5.068v15.797h5.162v-11.58c0-0.315,0.062-0.534,0.346-0.534h0.062c0.283,0,0.346,0.219,0.346,0.534v3.65h4.564
		V8.914c0-1.227-0.662-2.265-2.078-2.265h-0.314c-1.541,0-2.455,1.446-3.02,2.233V6.774z M131.095,21.062
		c0.441,1.321,0.914,1.51,1.447,1.51h4.123v-4.09h-0.439c-0.223,0-0.316-0.095-0.316-0.315v-7.804c0-2.675-1.824-3.901-5.098-3.901
		h-0.723c-3.115,0-4.879,1.353-4.879,3.649v1.636h4.564v-1.32c0-0.409,0.125-0.631,0.502-0.631h0.158
		c0.346,0,0.504,0.189,0.504,0.631v0.723c0,0.314-0.064,0.378-0.316,0.504c-0.283,0.157-3.303,1.51-3.555,1.668
		c-1.479,0.725-2.045,1.668-2.045,3.053v3.303c0,1.512,1.133,3.147,3.115,3.147h0.094C129.585,22.823,130.497,21.785,131.095,21.062
		 M130.403,19.582c-0.377,0-0.504-0.252-0.504-0.598v-2.329c0-0.534,0-0.849,0.346-1.069c0.221-0.158,0.473-0.314,0.693-0.473v3.777
		C130.938,19.299,130.78,19.582,130.403,19.582 M115.581,6.774v3.997h3.432l-3.619,8.087v3.713h9.219v-4.216h-3.619l3.463-7.867
		V6.774H115.581z M109.636,21.062c0.439,1.321,0.91,1.51,1.445,1.51h4.123v-4.09h-0.439c-0.221,0-0.316-0.095-0.316-0.315v-7.804
		c0-2.675-1.824-3.901-5.098-3.901h-0.723c-3.115,0-4.879,1.353-4.879,3.649v1.636h4.564v-1.32c0-0.409,0.125-0.631,0.502-0.631
		h0.158c0.346,0,0.504,0.189,0.504,0.631v0.723c0,0.314-0.064,0.378-0.314,0.504c-0.285,0.157-3.305,1.51-3.557,1.668
		c-1.479,0.725-2.045,1.668-2.045,3.053v3.303c0,1.512,1.133,3.147,3.115,3.147h0.094C108.124,22.823,109.036,21.785,109.636,21.062
		 M108.942,19.582c-0.377,0-0.504-0.252-0.504-0.598v-2.329c0-0.534,0-0.849,0.346-1.069c0.221-0.158,0.473-0.314,0.693-0.473v3.777
		C109.478,19.299,109.319,19.582,108.942,19.582 M90.786,0.733v21.838h4.531V11.463l2.832,11.108h4.719V0.733H98.37v10.258
		L95.978,0.733H90.786z M90.095,18.293h-1.07c-0.441,0-0.504-0.158-0.504-0.567v-6.734h1.574V6.774h-1.574V1.551h-5.162v5.224
		h-1.699v4.217h1.699v9.315c0,1.541,0.914,2.265,1.92,2.265h4.816V18.293z M76.026,22.571h5.162V6.774h-5.162V22.571z M81.188,1.803
		h-5.162v4.344h5.162V1.803z M62.528,22.571V11.526c0-0.472,0.096-0.851,0.566-0.851c0.504,0,0.566,0.348,0.566,0.851v11.045h5.225
		V11.526c0-0.472,0.125-0.851,0.597-0.851s0.565,0.348,0.565,0.851v11.045h5.225V9.67c0-1.102-0.725-3.053-2.674-3.053h-0.348
		c-1.572,0-2.644,1.133-3.493,2.172c-0.283-1.039-1.039-2.172-2.611-2.172h-0.346c-1.574,0-2.582,1.322-3.367,2.234V6.774h-5.067
		v15.797H62.528z M51.389,21.062c0.439,1.321,0.912,1.51,1.447,1.51h4.121v-4.09h-0.439c-0.221,0-0.315-0.095-0.315-0.315v-7.804
		c0-2.675-1.825-3.901-5.098-3.901h-0.724c-3.115,0-4.877,1.353-4.877,3.649v1.636h4.562v-1.32c0-0.409,0.126-0.631,0.503-0.631
		h0.158c0.346,0,0.503,0.189,0.503,0.631v0.723c0,0.314-0.062,0.378-0.314,0.504c-0.283,0.157-3.305,1.51-3.556,1.668
		c-1.479,0.725-2.046,1.668-2.046,3.053v3.303c0,1.512,1.133,3.147,3.115,3.147h0.095C49.877,22.823,50.792,21.785,51.389,21.062
		 M50.696,19.582c-0.377,0-0.503-0.252-0.503-0.598v-2.329c0-0.534,0-0.849,0.346-1.069c0.22-0.158,0.472-0.314,0.692-0.473v3.777
		C51.231,19.299,51.074,19.582,50.696,19.582 M44.717,0.733h-5.162v21.839h5.162V0.733z M38.801,6.774h-5.16v10.888
		c0,0.473-0.094,0.85-0.598,0.85c-0.473,0-0.566-0.377-0.566-0.817V6.774h-5.225c0,0-0.031,11.801,0,12.901
		c0,1.166,0.787,3.021,2.644,3.021h0.346c1.479,0,2.392-0.943,3.493-2.266v2.14h5.066V6.774z M14.824,22.571h5.16v-11.14
		c0-0.471,0.095-0.85,0.661-0.85c0.504,0,0.598,0.379,0.598,0.787v11.202h5.256V9.607c0-1.26-0.787-2.99-2.707-2.99h-0.378
		c-1.667,0-2.674,1.133-3.524,2.203V0.733h-5.066V22.571z M8.908,7.215h5.066V4.887c0-2.707-1.51-4.438-5.16-4.438H7.618
		c-3.65,0-5.413,1.951-5.413,4.909v1.103c0,2.611,0.913,4.185,2.549,5.443l2.832,2.234c1.007,0.818,1.07,1.259,1.07,2.328v0.85
		c0,0.661-0.126,1.07-0.629,1.07H7.964c-0.535,0-0.661-0.377-0.661-1.039V14.61H2.017v3.336c0,3.335,1.919,4.909,5.412,4.909h1.29
		c3.462,0,5.601-2.234,5.601-5.602v-1.826c0-2.266-0.786-3.838-2.58-5.317L8.279,7.342C7.681,6.838,7.586,6.461,7.586,5.799V5.107
		c0-0.504,0.126-0.818,0.661-0.818c0.504,0,0.661,0.346,0.661,0.818V7.215z"/>
</g>
</svg>
