<?xml version="1.0" encoding="utf-8"?>
<!-- Generator: Adobe Illustrator 15.0.0, SVG Export Plug-In . SVG Version: 6.00 Build 0)  -->
<!DOCTYPE svg PUBLIC "-//W3C//DTD SVG 1.1//EN" "http://www.w3.org/Graphics/SVG/1.1/DTD/svg11.dtd">
<svg version="1.1" id="Layer_1" xmlns="http://www.w3.org/2000/svg" xmlns:xlink="http://www.w3.org/1999/xlink" x="0px" y="0px"
	 width="136px" height="20px" viewBox="0 0 136 20" enable-background="new 0 0 136 20" xml:space="preserve">
<g>
	<defs>
		<rect id="SVGID_1_" x="2" y="2" width="132.182" height="16"/>
	</defs>
	<clipPath id="SVGID_2_">
		<use xlink:href="#SVGID_1_"  overflow="visible"/>
	</clipPath>
	<path clip-path="url(#SVGID_2_)" d="M125.846,17.797h3.686V9.864c0-0.359,0.067-0.628,0.471-0.628c0.36,0,0.428,0.269,0.428,0.584
		v7.977h3.754V8.584c0-0.787-0.473-2.18-1.934-2.18h-0.27c-1.057,0-1.864,0.742-2.518,1.596V6.517h-3.617V17.797z M121.126,16.72
		c0.314,0.944,0.651,1.077,1.034,1.077h2.943v-2.92h-0.314c-0.156,0-0.225-0.068-0.225-0.226V9.078c0-1.909-1.304-2.787-3.642-2.787
		h-0.516c-2.226,0-3.483,0.967-3.483,2.607v1.169h3.258V9.123c0-0.292,0.092-0.449,0.36-0.449h0.111c0.249,0,0.36,0.136,0.36,0.449
		V9.64c0,0.224-0.045,0.27-0.225,0.36c-0.203,0.111-2.359,1.078-2.541,1.191c-1.054,0.516-1.46,1.19-1.46,2.18v2.359
		c0,1.078,0.81,2.248,2.226,2.248h0.068C120.047,17.979,120.699,17.236,121.126,16.72 M120.631,15.662
		c-0.27,0-0.357-0.179-0.357-0.426v-1.664c0-0.381,0-0.606,0.246-0.764c0.157-0.112,0.336-0.225,0.494-0.336v2.695
		C121.014,15.461,120.902,15.662,120.631,15.662 M112.227,17.797h3.687V6.517h-3.687V17.797z M115.913,2.966h-3.687v3.102h3.687
		V2.966z M107.463,6.517h-3.619v11.28h3.686v-8.27c0-0.224,0.046-0.382,0.249-0.382h0.044c0.202,0,0.248,0.158,0.248,0.382v2.607
		h3.258V8.044c0-0.875-0.472-1.617-1.484-1.617h-0.225c-1.1,0-1.752,1.033-2.156,1.595V6.517z M99.126,16.72
		c0.314,0.944,0.651,1.077,1.033,1.077h2.943v-2.92h-0.313c-0.158,0-0.225-0.068-0.225-0.226V9.078c0-1.909-1.305-2.787-3.641-2.787
		h-0.518c-2.225,0-3.484,0.967-3.484,2.607v1.169h3.26V9.123c0-0.292,0.09-0.449,0.359-0.449h0.112c0.247,0,0.358,0.136,0.358,0.449
		V9.64c0,0.224-0.043,0.27-0.224,0.36c-0.203,0.111-2.36,1.078-2.538,1.191c-1.059,0.516-1.462,1.19-1.462,2.18v2.359
		c0,1.078,0.81,2.248,2.226,2.248h0.066C98.047,17.979,98.699,17.236,99.126,16.72 M98.631,15.662c-0.27,0-0.359-0.179-0.359-0.426
		v-1.664c0-0.381,0-0.606,0.246-0.764c0.158-0.112,0.338-0.225,0.494-0.336v2.695C99.012,15.461,98.9,15.662,98.631,15.662
		 M87.598,6.517V9.37h2.449l-2.584,5.776v2.651h6.584v-3.01h-2.584l2.473-5.619V6.517H87.598z M82.9,16.72
		c0.314,0.944,0.651,1.077,1.033,1.077h2.943v-2.92h-0.314c-0.156,0-0.224-0.068-0.224-0.226V9.078c0-1.909-1.304-2.787-3.642-2.787
		h-0.516c-2.225,0-3.484,0.967-3.484,2.607v1.169h3.26V9.123c0-0.292,0.09-0.449,0.359-0.449h0.113c0.246,0,0.357,0.136,0.357,0.449
		V9.64c0,0.224-0.045,0.27-0.225,0.36c-0.201,0.111-2.359,1.078-2.538,1.191c-1.056,0.516-1.46,1.19-1.46,2.18v2.359
		c0,1.078,0.808,2.248,2.224,2.248h0.067C81.821,17.979,82.474,17.236,82.9,16.72 M82.406,15.662c-0.27,0-0.359-0.179-0.359-0.426
		v-1.664c0-0.381,0-0.606,0.246-0.764c0.157-0.112,0.338-0.225,0.494-0.336v2.695C82.787,15.461,82.676,15.662,82.406,15.662
		 M68.99,2.202v15.595h3.236V9.864l2.021,7.933h3.371V2.202h-3.213v7.325l-1.709-7.325H68.99z M68.046,14.742h-0.764
		c-0.315,0-0.36-0.113-0.36-0.404V9.527h1.124V6.517h-1.124V2.786h-3.685v3.731h-1.213v3.011h1.213v6.652
		c0,1.102,0.651,1.617,1.37,1.617h3.439V14.742z M57.551,17.797h3.686V6.517h-3.686V17.797z M61.237,2.966h-3.686v3.102h3.686V2.966
		z M47.462,17.797V9.91c0-0.337,0.067-0.606,0.404-0.606c0.359,0,0.405,0.247,0.405,0.606v7.887h3.73V9.91
		c0-0.337,0.089-0.606,0.427-0.606c0.338,0,0.404,0.247,0.404,0.606v7.887h3.731V8.584c0-0.787-0.517-2.18-1.91-2.18h-0.247
		c-1.125,0-1.888,0.809-2.495,1.551c-0.203-0.742-0.742-1.551-1.865-1.551h-0.247c-1.123,0-1.842,0.944-2.405,1.596V6.517h-3.618
		v11.28H47.462z M39.057,16.72c0.314,0.944,0.652,1.077,1.033,1.077h2.944v-2.92h-0.315c-0.157,0-0.225-0.068-0.225-0.226V9.078
		c0-1.909-1.303-2.787-3.641-2.787h-0.516c-2.225,0-3.483,0.967-3.483,2.607v1.169h3.259V9.123c0-0.292,0.089-0.449,0.359-0.449
		h0.112c0.247,0,0.359,0.136,0.359,0.449V9.64c0,0.224-0.045,0.27-0.225,0.36c-0.202,0.111-2.359,1.078-2.539,1.191
		c-1.057,0.516-1.461,1.19-1.461,2.18v2.359c0,1.078,0.809,2.248,2.224,2.248h0.068C37.978,17.979,38.629,17.236,39.057,16.72
		 M38.563,15.662c-0.27,0-0.36-0.179-0.36-0.426v-1.664c0-0.381,0-0.606,0.247-0.764c0.157-0.112,0.338-0.225,0.495-0.336v2.695
		C38.944,15.461,38.832,15.662,38.563,15.662 M33.843,2.202h-3.686v15.595h3.686V2.202z M29.169,6.517h-3.686v7.776
		c0,0.336-0.066,0.605-0.427,0.605c-0.337,0-0.404-0.27-0.404-0.584V6.517h-3.731c0,0-0.022,8.427,0,9.214
		c0,0.832,0.562,2.156,1.888,2.156h0.247c1.057,0,1.708-0.672,2.495-1.616v1.526h3.618V6.517z M11.595,17.797h3.686V9.842
		c0-0.337,0.068-0.606,0.472-0.606c0.36,0,0.427,0.269,0.427,0.562v7.999h3.753V8.539c0-0.898-0.562-2.135-1.933-2.135h-0.27
		c-1.191,0-1.91,0.809-2.517,1.573V2.202h-3.619V17.797z M6.922,6.831h3.618V5.168c0-1.933-1.079-3.169-3.686-3.169H6
		c-2.607,0-3.866,1.394-3.866,3.506v0.786c0,1.865,0.652,2.989,1.82,3.888l2.023,1.596c0.719,0.584,0.764,0.898,0.764,1.662v0.607
		c0,0.472-0.09,0.764-0.449,0.764H6.248c-0.383,0-0.473-0.27-0.473-0.741v-1.954H2v2.381c0,2.383,1.372,3.507,3.865,3.507h0.922
		c2.471,0,4-1.597,4-4.001v-1.304c0-1.618-0.562-2.742-1.843-3.798L6.473,6.922c-0.427-0.36-0.495-0.63-0.495-1.102V5.326
		c0-0.36,0.09-0.584,0.472-0.584c0.359,0,0.472,0.247,0.472,0.584V6.831z"/>
</g>
</svg>
