<?xml version="1.0" standalone="no"?> <!DOCTYPE svg PUBLIC "-//W3C//DTD SVG 1.0//EN" "http://www.w3.org/TR/2001/REC-SVG-20010904/DTD/svg10.dtd" > <svg xmlns="http://www.w3.org/2000/svg" width="100%" height="100%">
<defs >
<font horiz-adv-x="354" ><font-face
    font-family=""
    units-per-em="1000"
    panose-1="0 0 0 0 0 0 0 0 0 0"
    ascent="812"
    descent="-188"
    alphabetic="0" />
<missing-glyph horiz-adv-x="109" />
<glyph unicode=" " glyph-name="space" horiz-adv-x="109" />
<glyph unicode="!" glyph-name="exclam" horiz-adv-x="192" d="M166 0H25V161H166V0ZM184 744L135 186H56L8 744H184Z" />
<glyph unicode="&quot;" glyph-name="quotedbl" horiz-adv-x="259" d="M120 535H14V744H120V535ZM244 535H138V744H244V535Z" />
<glyph unicode="#" glyph-name="numbersign" horiz-adv-x="386" d="M204 746L188 543H221L237 746H341L325 543H381L373 436H316L309 346H365L357 239H301L282 0H179L197 239H164L145 0H43L61 239H5L14 346H70L77 436H20L29 543H85L101 746H204ZM172 346H206L213
436H179L172 346Z" />
<glyph unicode="$" glyph-name="dollar" horiz-adv-x="406" d="M182 -11Q92 -10 51 32T10 152V275H160V158Q160 124 182 115V299L100 365Q52 404 33 450T13 562V592Q13 672 57 712T182 754V812H216V754Q303 753 341 716T380 598V510H236V595Q236 612 232 621T216
634V472L299 406Q326 384 344 363T374 319T391 268T397 204V170Q397 86 350 38T216 -11V-73H182V-11ZM241 193Q241 222 236 237T216 268V114Q241 121 241 164V193ZM162 572Q162 546 166 532T182 503V634Q169 631 166 621T162 594V572Z" />
<glyph unicode="%" glyph-name="percent" horiz-adv-x="550" d="M294 223Q294 282 324 311T406 341H427Q481 341 510 311T539 223V112Q539 54 509 24T426 -6H407Q352 -6 323 23T294 112V223ZM11 633Q11 693 41 722T123 751H143Q197 751 226 722T256 633V522Q256
465 226 435T143 404H123Q69 404 40 434T11 522V633ZM474 744L175 0H77L376 744H474ZM148 651Q148 668 133 668Q119 668 119 651V506Q119 489 133 489Q148 489 148 506V651ZM417 78Q431 78 431 95V240Q431 248 428 253T417 258Q409 258 406 253T403 240V95Q403
78 417 78Z" />
<glyph unicode="&amp;" glyph-name="ampersand" horiz-adv-x="503" d="M10 225Q10 293 39 337T118 416Q106 440 97 460T82 499T72 539T69 585V611Q69 636 76 661T100 707T145 741T215 754H242Q316 754 349 718T382 616V599Q382 567 376 543T355 498T320 459T269
419L343 265Q348 306 348 351T349 445H482Q482 390 479 345T469 261T454 190T433 129Q449 120 466 117T502 111Q495 77 489 51Q484 28 479 8T473 -15Q425 -13 394 -3T340 24Q322 10 295 0T227 -11H219Q122 -11 66 40T10 194V225ZM243 114Q257 114 272 119L167 320Q163
306 161 291T159 255V232Q159 114 243 114ZM208 585Q208 561 212 545T230 501Q244 519 248 535T252 581V613Q252 633 248 640T230 647Q217 647 213 639T208 612V585Z" />
<glyph unicode="&apos;" glyph-name="quotesingle" horiz-adv-x="136" d="M122 535H14V744H122V535Z" />
<glyph unicode="(" glyph-name="parenleft" horiz-adv-x="227" d="M21 344Q21 422 30 489T56 613T92 718T135 808H228Q215 772 203 723T181 614T165 487T159 347Q159 273 165 204T182 73T206 -40T232 -131H138Q117 -92 96 -43T59 65T32 194T21 344Z" />
<glyph unicode=")" glyph-name="parenright" horiz-adv-x="227" d="M68 347Q68 419 62 486T47 613T25 722T-1 808H92Q114 767 135 719T172 613T197 489T207 344Q207 264 197 195T169 66T131 -43T89 -131H-4Q8 -92 21 -40T44 73T61 203T68 347Z" />
<glyph unicode="*" glyph-name="asterisk" horiz-adv-x="254" d="M208 719L249 650L185 626L248 601L209 533L158 576L168 509H85L96 576L45 534L5 602L68 626L4 650L44 719L95 677L85 744H168L159 677L208 719Z" />
<glyph unicode="+" glyph-name="plus" horiz-adv-x="347" d="M119 252H14V351H119V469H228V351H333V252H228V135H119V252Z" />
<glyph unicode="," glyph-name="comma" horiz-adv-x="170" d="M42 -101Q50 -81 58 -53T69 0H14V161H156V41Q156 -6 144 -42T122 -101H42Z" />
<glyph unicode="-" glyph-name="hyphen" horiz-adv-x="201" d="M187 372V226H14V372H187Z" />
<glyph unicode="." glyph-name="period" horiz-adv-x="170" d="M156 0H14V161H156V0Z" />
<glyph unicode="/" glyph-name="slash" horiz-adv-x="238" d="M101 -131H-11L128 808H239L101 -131Z" />
<glyph unicode="0" glyph-name="zero" horiz-adv-x="424" d="M409 189Q409 92 360 41T227 -11H195Q107 -11 62 42T16 189V544Q16 592 26 630T58 696T114 739T196 754H227Q276 754 310 739T367 697T399 630T409 544V189ZM237 565Q237 583 232 593T211 603Q197 603
192 594T187 565V178Q187 163 192 153T211 143Q226 143 231 152T237 178V565Z" />
<glyph unicode="1" glyph-name="one" horiz-adv-x="273" d="M9 522V660Q66 660 88 683T113 744H253V0H89V522H9Z" />
<glyph unicode="2" glyph-name="two" horiz-adv-x="401" d="M193 618Q181 618 177 611T172 590V489H22V606Q22 634 30 660T57 707T105 740T178 753H212Q296 753 340 713T384 598V559Q384 531 383 509T375 465T355 421T319 370Q303 350 285 328T247 283Q212 241
194 216T167 176T157 156T156 143H239V251H389V0H10V98Q10 127 12 150T24 201T53 263T109 351Q125 376 141 401T172 447Q185 468 193 483T207 509T213 530T215 550V590Q215 618 193 618Z" />
<glyph unicode="3" glyph-name="three" horiz-adv-x="394" d="M19 508V605Q19 634 27 660T55 707T103 740T175 753H204Q289 753 330 713T372 605V531Q372 506 367 488T354 456T337 435T321 422Q347 413 364 389T381 327V156Q381 75 334 32T207 -11H178Q130 -11
98 2T47 36T19 83T11 136V276H169V166Q169 139 192 139Q215 139 215 166V293Q215 307 211 312T193 318H114V469H187Q211 469 211 495V590Q211 606 206 611T189 617Q178 617 173 611T168 590V508H19Z" />
<glyph unicode="4" glyph-name="four" horiz-adv-x="401" d="M164 464Q161 454 155 435T141 392T125 346T111 305H164V464ZM8 284Q24 326 46 386T91 512T136 640T174 749H323V305H393V152H323V0H164V152H8V284Z" />
<glyph unicode="5" glyph-name="five" horiz-adv-x="397" d="M20 329V744H368V597H172V471Q180 482 190 494T214 515T242 531T276 538H286Q311 538 329 528T360 503T377 467T383 427V146Q383 114 372 86T340 36T288 2T216 -11H176Q130 -11 99 1T48 34T21 80T13
132V273H172V162Q172 149 176 142T194 134Q205 134 209 142T214 162V372Q214 383 211 391T195 400Q183 400 180 392T176 372V329H20Z" />
<glyph unicode="6" glyph-name="six" horiz-adv-x="422" d="M307 484Q333 484 352 475T383 450T402 415T408 375V158Q408 123 396 93T361 40T305 4T230 -10H196Q151 -10 117 2T61 37T27 90T16 156V583Q16 617 26 648T58 703T114 740T195 754H224Q269 754 301 742T353
709T384 661T394 603V514H227V587Q227 612 207 612Q195 612 191 605T186 587V417Q193 426 203 437T228 459T259 477T299 484H307ZM212 135Q229 135 233 145T237 167V321Q237 338 232 346T212 354Q186 354 186 321V167Q186 154 191 145T212 135Z" />
<glyph unicode="7" glyph-name="seven" horiz-adv-x="369" d="M358 744V613Q355 589 351 568T342 519T329 456T311 365Q294 280 287 212T280 94V0H84V79Q84 103 85 127T93 181T109 248T138 335Q168 416 185 464T212 540T223 581T226 605H157V504H12V744H358Z" />
<glyph unicode="8" glyph-name="eight" horiz-adv-x="412" d="M393 509Q393 466 375 441T336 403Q365 388 382 362T400 293V160Q400 77 353 34T220 -11H191Q13 -11 13 161V293Q13 335 29 360T75 403Q53 417 37 441T20 509V599Q20 630 29 658T58 707T112 740T192
753H218Q264 753 297 741T352 709T383 660T393 598V509ZM230 297Q230 312 225 320T206 329Q182 329 182 297V164Q182 151 187 143T206 135Q230 135 230 164V297ZM229 590Q229 618 206 618Q183 618 183 590V484Q183 456 207 456Q229 456 229 484V590Z" />
<glyph unicode="9" glyph-name="nine" horiz-adv-x="421" d="M122 258Q95 258 75 268T42 296T21 336T14 385V584Q14 615 23 645T52 700T105 738T185 753H221Q267 753 302 741T360 706T394 653T406 586V152Q406 120 396 91T365 39T310 3T230 -11H199Q152 -11 119
0T66 30T36 74T27 129V228H195V155Q195 143 199 137T216 130Q227 130 231 137T235 155V324Q227 315 217 304T193 282T164 265T130 258H122ZM209 608Q193 608 189 598T184 575V421Q184 388 209 388Q235 388 235 421V575Q235 588 231 598T209 608Z" />
<glyph unicode=":" glyph-name="colon" horiz-adv-x="174" d="M158 0H16V161H158V0ZM158 295H16V455H158V295Z" />
<glyph unicode=";" glyph-name="semicolon" horiz-adv-x="174" d="M44 -101Q52 -82 60 -54T71 0H16V161H158V41Q158 -7 146 -43T124 -101H44ZM158 295H16V455H158V295Z" />
<glyph unicode="&lt;" glyph-name="less" horiz-adv-x="296" d="M12 351L281 457V349L133 301L281 255V145L12 253V351Z" />
<glyph unicode="=" glyph-name="equal" horiz-adv-x="341" d="M325 291V198H16V291H325ZM325 406V313H16V406H325Z" />
<glyph unicode="&gt;" glyph-name="greater" horiz-adv-x="295" d="M14 457L284 351V253L14 145V255L163 302L14 349V457Z" />
<glyph unicode="?" glyph-name="question" horiz-adv-x="377" d="M108 186V288Q108 306 109 319T114 345T124 369T141 398L186 469Q198 488 201 503T204 540V591Q204 607 200 614T182 622Q168 622 164 614T160 591V479H12V595Q12 625 18 653T41 704T88 739T168
753H203Q248 753 278 742T328 710T356 662T365 600V549Q365 526 363 507T356 472T343 439T320 405L256 323Q248 313 244 306T236 290T232 273T231 248V186H108ZM241 0H99V161H241V0Z" />
<glyph unicode="@" glyph-name="at" horiz-adv-x="648" d="M553 -39Q542 -54 523 -71T475 -105T409 -131T326 -142H321Q291 -142 257 -138T189 -119T124 -79T68 -10T30 95T15 245V348Q15 437 36 508T97 628T196 704T329 731H338Q404 731 458 714T551 658T611 561T633
417V328Q633 241 621 185T587 96T536 51T474 38H458Q414 38 388 56T349 106Q326 70 302 54T252 38H247Q228 38 211 46T180 71T160 110T154 163L167 436Q169 484 192 513T252 542H259Q288 542 311 525T351 484L353 538H502L480 144Q479 136 481 130T493 124Q514
124 526 179T538 326V415Q538 487 523 532T480 604T417 639T338 649H329Q281 649 241 631T173 576T130 482T114 346V246Q114 176 124 127T150 43T189 -11T234 -41T279 -55T321 -58H326Q361 -58 389 -50T438 -28T474 -2T498 23L553 -39ZM347 412Q348 440 331 440Q321
440 319 433T315 412L302 167Q301 140 317 140Q333 140 334 167L347 412Z" />
<glyph unicode="A" glyph-name="A" horiz-adv-x="397" d="M228 109H152L141 0H-2L93 744H296L400 0H240L228 109ZM167 256H213L190 482L167 256Z" />
<glyph unicode="B" glyph-name="B" horiz-adv-x="425" d="M18 744H268Q332 744 365 712T399 604V522Q399 495 392 476T374 442T351 420T330 409Q343 405 357 397T384 375T405 338T413 282V172Q413 0 278 0H18V744ZM183 328V132H213Q228 132 234 140T241 172V290Q241
310 235 319T210 328H183ZM183 617V457H206Q220 457 228 465T236 494V582Q236 599 230 608T207 617H183Z" />
<glyph unicode="C" glyph-name="C" horiz-adv-x="418" d="M241 176V325H404V171Q404 136 395 103T365 45T311 4T228 -12H199Q147 -12 112 2T56 43T25 106T16 185V563Q16 603 25 638T56 698T113 739T198 754H228Q277 754 311 741T365 704T395 649T404 580V458H241V573Q241
591 236 600T214 610Q198 610 193 602T187 573V176Q187 157 193 147T215 137Q230 137 235 148T241 176Z" />
<glyph unicode="D" glyph-name="D" horiz-adv-x="420" d="M18 744H254Q323 744 363 707T403 580V171Q403 83 366 42T255 0H18V744ZM181 143H204Q222 143 228 154T235 188V563Q235 586 229 596T206 606H181V143Z" />
<glyph unicode="E" glyph-name="E" horiz-adv-x="342" d="M327 744V590H181V463H298V305H181V157H333V0H18V744H327Z" />
<glyph unicode="F" glyph-name="F" horiz-adv-x="339" d="M18 744H329V591H181V463H295V306H181V0H18V744Z" />
<glyph unicode="G" glyph-name="G" horiz-adv-x="427" d="M155 -10Q120 -10 94 3T51 40T25 94T16 159V565Q16 603 25 637T56 697T112 738T198 754H226Q280 754 315 739T370 698T397 641T405 575V489H245V573Q245 591 239 601T215 612Q187 612 187 573V174Q187
131 220 131Q254 131 254 173V311H208V448H412V0H305Q304 6 302 15T297 34T291 53T285 69Q278 57 268 43T242 18T208 -2T163 -10H155Z" />
<glyph unicode="H" glyph-name="H" horiz-adv-x="424" d="M183 0H18V744H183V474H240V744H405V0H240V300H183V0Z" />
<glyph unicode="I" glyph-name="I" horiz-adv-x="201" d="M183 0H18V744H183V0Z" />
<glyph unicode="J" glyph-name="J" horiz-adv-x="399" d="M166 332V164Q166 138 188 138H190Q211 138 211 164V744H381V159Q381 81 340 36T215 -9H166Q85 -9 49 32T12 148V332H166Z" />
<glyph unicode="K" glyph-name="K" horiz-adv-x="425" d="M183 0H18V744H183V481L260 744H424L323 412L430 0H257L183 297V0Z" />
<glyph unicode="L" glyph-name="L" horiz-adv-x="327" d="M183 744V158H318V0H18V744H183Z" />
<glyph unicode="M" glyph-name="M" horiz-adv-x="504" d="M18 744H215L256 396L299 744H485V0H343V406L280 0H221L158 406V0H18V744Z" />
<glyph unicode="N" glyph-name="N" horiz-adv-x="423" d="M178 744L263 384V744H404V0H259L161 388V0H18V744H178Z" />
<glyph unicode="O" glyph-name="O" horiz-adv-x="433" d="M418 191Q418 94 369 42T234 -11H202Q111 -11 64 41T16 191V544Q16 640 59 697T201 754H233Q282 754 317 739T375 697T407 631T418 544V191ZM247 561Q247 603 217 603Q200 603 194 593T187 561V180Q187
163 194 153T218 143Q234 143 240 153T247 180V561Z" />
<glyph unicode="P" glyph-name="P" horiz-adv-x="408" d="M182 287V0H18V744H256Q330 744 363 707T396 594V440Q396 367 361 327T261 287H182ZM182 424H202Q220 424 225 433T231 460V577Q231 594 226 604T202 614H182V424Z" />
<glyph unicode="Q" glyph-name="Q" horiz-adv-x="434" d="M418 191Q418 110 383 60T286 -5L350 -155H162V-8Q90 3 53 54T16 191V544Q16 640 59 697T201 754H233Q283 754 318 739T375 697T408 631T418 544V191ZM247 561Q247 603 217 603Q200 603 194 593T187 561V180Q187
163 194 153T218 143Q234 143 240 153T247 180V561Z" />
<glyph unicode="R" glyph-name="R" horiz-adv-x="417" d="M183 445H204Q220 445 227 453T234 481V581Q234 601 229 608T207 616H183V445ZM183 0H18V744H277Q332 744 366 712T400 613V515Q400 489 394 470T379 438T358 416T335 402Q345 398 356 390T378 370T394
342T400 305V59Q400 38 403 26T410 5V0H247Q242 7 238 20T234 53V269Q234 288 229 296T206 305H183V0Z" />
<glyph unicode="S" glyph-name="S" horiz-adv-x="411" d="M227 754Q318 754 355 713T392 602V513H233V593Q233 608 228 616T208 625Q194 625 189 617T183 592V573Q183 550 190 534T219 497L304 421Q332 395 351 372T381 326T397 277T402 221V184Q402 141 391 105T358
44T301 4T218 -10H182Q9 -10 9 154V273H171V170Q171 151 177 141T199 131Q214 131 220 142T226 175V195Q226 211 225 223T220 245T208 266T187 289L101 366Q54 408 35 454T16 558V593Q16 667 59 710T190 754H227Z" />
<glyph unicode="T" glyph-name="T" horiz-adv-x="368" d="M359 744V590H266V0H102V590H9V744H359Z" />
<glyph unicode="U" glyph-name="U" horiz-adv-x="430" d="M18 744H188V185Q188 147 215 147Q230 147 236 157T242 185V744H412V177Q412 92 365 40T230 -12H198Q105 -12 62 39T18 177V744Z" />
<glyph unicode="V" glyph-name="V" horiz-adv-x="421" d="M-1 744H173L218 278L263 744H422L322 0H106L-1 744Z" />
<glyph unicode="W" glyph-name="W" horiz-adv-x="629" d="M397 744L437 287L472 744H630L535 0H348L316 394L284 0H93L-1 744H168L202 283L242 744H397Z" />
<glyph unicode="X" glyph-name="X" horiz-adv-x="411" d="M6 744H173L208 526L242 744H399L323 398L414 0H248L204 251L158 0H-3L86 398L6 744Z" />
<glyph unicode="Y" glyph-name="Y" horiz-adv-x="382" d="M278 281V0H114V278L-6 744H159L200 499L239 744H387L278 281Z" />
<glyph unicode="Z" glyph-name="Z" horiz-adv-x="368" d="M349 744V604L189 154H358V0H9V141L168 592H18V744H349Z" />
<glyph unicode="[" glyph-name="bracketleft" horiz-adv-x="214" d="M207 696H152V-20H207V-132H25V808H207V696Z" />
<glyph unicode="\" glyph-name="backslash" horiz-adv-x="238" d="M-2 808H110L249 -131H138L-2 808Z" />
<glyph unicode="]" glyph-name="bracketright" horiz-adv-x="214" d="M7 -20H61V696H7V808H189V-132H7V-20Z" />
<glyph unicode="^" glyph-name="asciicircum" horiz-adv-x="267" d="M265 426H157L132 595L109 426H2L64 744H203L265 426Z" />
<glyph unicode="_" glyph-name="underscore" horiz-adv-x="381" d="M3 -20H378V-127H3V-20Z" />
<glyph unicode="`" glyph-name="grave" horiz-adv-x="342" d="M257 561H134L84 707H212L257 561Z" />
<glyph unicode="a" glyph-name="a" horiz-adv-x="388" d="M202 259Q197 256 189 251T174 238Q168 230 166 222T163 199V136Q163 124 167 117T182 110Q193 110 197 117T202 136V259ZM11 202Q11 245 28 272T79 317Q89 322 105 329T139 344T170 357T191 367Q197 370
199 373T202 387V415Q202 439 183 439H180Q168 439 164 433T160 415V365H18V426Q18 479 54 513T170 547H192Q278 547 317 515T356 420V143Q356 136 359 134T371 131H385V0H244Q203 0 203 61Q197 51 187 39T165 17T136 1T100 -6H96Q75 -6 59 2T33 25T17 57T11 96V202Z"
/>
<glyph unicode="b" glyph-name="b" horiz-adv-x="395" d="M176 744V474Q183 483 193 495T216 517T246 535T282 543H288Q311 543 328 534T356 509T374 473T380 430V121Q380 97 372 74T350 32T316 2T272 -10H269Q248 -10 232 -4T202 14T177 40T155 71Q153 64 151
54T147 33T144 13T142 0H16V744H176ZM176 141Q176 129 180 120T196 111Q209 111 213 119T218 140V392Q218 422 196 422Q183 422 180 413T176 392V141Z" />
<glyph unicode="c" glyph-name="c" horiz-adv-x="368" d="M357 241V133Q357 102 348 76T319 30T271 -1T205 -12H175Q96 -12 55 29T13 145V385Q13 420 21 450T49 502T99 536T174 549H207Q249 549 277 538T324 508T349 463T357 406V325H213V403Q213 417 209 424T192
432Q181 432 178 425T174 404V139Q174 127 177 120T192 112Q212 112 212 138V241H357Z" />
<glyph unicode="d" glyph-name="d" horiz-adv-x="397" d="M382 744V0H223V60Q216 49 206 37T183 14T154 -4T120 -11H117Q94 -11 76 -1T44 27T23 68T15 118V423Q15 447 21 469T39 507T68 534T107 544H113Q133 544 149 538T179 521T203 499T222 477V744H382ZM222
385Q222 401 218 411T199 421Q185 421 181 413T176 389V143Q176 129 180 120T199 111Q213 111 217 121T222 146V385Z" />
<glyph unicode="e" glyph-name="e" horiz-adv-x="375" d="M205 549Q277 549 320 511T363 389V251H168V138Q168 108 190 108Q202 108 206 116T211 138V214H363V140Q363 67 319 28T205 -11H174Q100 -11 57 27T13 143V389Q13 424 22 453T52 504T102 537T174 549H205ZM168
349H213V410Q213 427 209 435T190 443Q176 443 172 435T168 410V349Z" />
<glyph unicode="f" glyph-name="f" horiz-adv-x="301" d="M292 615H246Q234 615 231 611T227 595V538H292V403H227V0H68V403H6V538H68V656Q68 696 93 720T160 744H292V615Z" />
<glyph unicode="g" glyph-name="g" horiz-adv-x="396" d="M221 59Q214 48 204 36T182 14T154 -3T120 -10Q75 -10 45 22T15 110V414Q15 440 21 463T39 504T69 532T112 542H115Q153 542 178 520T223 473V538H381V-57Q381 -86 372 -111T342 -154T291 -184T214 -195H183Q138
-195 107 -187T57 -163T30 -128T22 -84V-21H177V-57Q177 -68 181 -73T197 -79H200Q212 -79 216 -73T221 -55V59ZM221 391Q221 402 217 411T199 421Q185 421 181 413T177 392V136Q177 124 181 115T199 106Q210 106 215 115T221 136V391Z" />
<glyph unicode="h" glyph-name="h" horiz-adv-x="399" d="M16 744H176V472Q193 498 220 520T286 543H292Q316 543 333 534T361 511T378 480T383 446V0H221V387Q221 398 217 406T198 415Q184 415 180 407T176 384V0H16V744Z" />
<glyph unicode="i" glyph-name="i" horiz-adv-x="191" d="M176 0H16V538H176V0ZM176 561H16V702H176V561Z" />
<glyph unicode="j" glyph-name="j" horiz-adv-x="192" d="M176 561H16V702H176V561ZM-1 -47Q8 -47 12 -43T16 -28V538H176V-107Q176 -145 154 -166T97 -188H-46V-47H-1Z" />
<glyph unicode="k" glyph-name="k" horiz-adv-x="391" d="M236 538H387L303 313L395 0H239L176 222V0H16V744H176V362L236 538Z" />
<glyph unicode="l" glyph-name="l" horiz-adv-x="191" d="M176 0H16V744H176V0Z" />
<glyph unicode="m" glyph-name="m" horiz-adv-x="597" d="M16 538H174V471Q181 482 191 494T215 518T244 536T280 544H286Q325 544 346 522T375 474Q384 486 395 498T419 520T449 537T486 544H492Q517 544 534 535T561 511T576 479T581 445V0H420V384Q420 398
417 406T399 415Q388 415 384 409T379 391V0H217V384Q217 398 214 406T196 415Q183 415 180 407T176 384V0H16V538Z" />
<glyph unicode="n" glyph-name="n" horiz-adv-x="399" d="M16 538H174V470Q194 499 221 521T286 543H293Q320 543 337 533T364 507T379 474T383 443V0H221V386Q221 398 217 406T198 415Q184 415 180 406T176 383V0H16V538Z" />
<glyph unicode="o" glyph-name="o" horiz-adv-x="396" d="M13 167V372Q13 460 57 504T182 549H213Q296 549 339 505T383 373V168Q383 83 338 36T213 -11H181Q94 -11 54 35T13 167ZM174 390V152Q174 137 178 128T197 118Q211 118 216 127T221 152V390Q221 405 216
414T197 424Q183 424 179 415T174 390Z" />
<glyph unicode="p" glyph-name="p" horiz-adv-x="397" d="M175 538V472Q199 507 224 526T284 545H287Q337 545 359 509T382 415V117Q382 88 374 65T352 25T320 -1T280 -11H277Q245 -11 221 5T176 51V-188H16V538H175ZM176 137Q176 123 181 114T197 105Q211 105
215 114T219 136V395Q219 409 215 417T197 425Q184 425 180 417T176 395V137Z" />
<glyph unicode="q" glyph-name="q" horiz-adv-x="397" d="M382 538V-188H222V59Q205 33 180 12T119 -10H114Q93 -10 75 0T44 27T23 66T15 115V403Q15 464 41 504T127 545H134Q155 545 172 538T202 519T227 493T248 463Q253 474 257 496T264 538H382ZM222 393Q222
407 217 416T198 426Q186 426 182 417T177 395V137Q177 106 199 106Q212 106 217 116T222 144V393Z" />
<glyph unicode="r" glyph-name="r" horiz-adv-x="359" d="M174 469Q179 478 187 490T206 514T234 533T270 541H279Q315 541 332 521T349 468V274H205V396Q205 407 202 412T190 418Q176 418 176 396V0H16V538H174V469Z" />
<glyph unicode="s" glyph-name="s" horiz-adv-x="350" d="M336 438V376H196V425Q196 436 193 442T178 449Q167 449 163 443T159 425V411Q159 396 163 388T181 369L261 309Q286 291 302 273T327 237T340 198T344 155V137Q344 69 305 29T190 -11H154Q81 -11 44 22T7
116V191H150V128Q150 102 171 102H172Q190 102 190 128V144Q190 162 185 174T164 198L88 253Q65 269 50 286T27 322T16 359T13 399V417Q13 480 49 514T160 549H195Q336 549 336 438Z" />
<glyph unicode="t" glyph-name="t" horiz-adv-x="296" d="M131 0Q106 0 87 18T67 71V403H6V538H67V716H227V538H286V403H227V158Q227 147 230 143T245 138H286V0H131Z" />
<glyph unicode="u" glyph-name="u" horiz-adv-x="395" d="M379 0H222V69Q202 40 176 18T110 -4H105Q81 -4 64 6T37 31T21 63T16 97V538H177V152Q177 141 181 132T198 123Q212 123 216 132T220 154V538H379V0Z" />
<glyph unicode="v" glyph-name="v" horiz-adv-x="368" d="M-2 538H156L185 210L216 538H370L281 0H84L-2 538Z" />
<glyph unicode="w" glyph-name="w" horiz-adv-x="567" d="M83 0L-2 538H156L184 215L216 538H357L388 210L417 538H569L484 0H314L285 271L256 0H83Z" />
<glyph unicode="x" glyph-name="x" horiz-adv-x="368" d="M3 538H157L186 390L213 538H363L293 293L370 0H215L183 163L149 0H-2L76 289L3 538Z" />
<glyph unicode="y" glyph-name="y" horiz-adv-x="369" d="M-2 538H156L189 252L217 538H372L249 -106Q240 -153 217 -170T168 -188H27V-52H84Q95 -52 98 -47T103 -30L104 -17Q105 -9 104 -1T100 22L-2 538Z" />
<glyph unicode="z" glyph-name="z" horiz-adv-x="310" d="M297 538V417L176 135H302V0H7V121L131 409H15V538H297Z" />
<glyph unicode="{" glyph-name="braceleft" horiz-adv-x="227" d="M188 254Q188 234 184 203T174 139T164 76T159 28Q159 5 168 -10T203 -25H220V-131H158Q98 -131 65 -102T32 -15Q32 3 37 36T48 108T59 183T64 245Q64 286 29 286H13V396H33Q52 396 58 406T64
433Q64 461 59 496T48 567T37 635T32 691Q32 749 65 778T158 808H220V701H196Q176 701 168 692T159 663Q159 646 163 616T173 552T183 487T188 438Q188 400 176 377T128 341Q163 329 175 308T188 254Z" />
<glyph unicode="|" glyph-name="bar" horiz-adv-x="194" d="M150 -131H44V808H150V-131Z" />
<glyph unicode="}" glyph-name="braceright" horiz-adv-x="227" d="M39 438Q39 456 43 487T54 552T64 616T69 663Q69 701 31 701H7V808H69Q129 808 162 779T195 691Q195 668 190 636T179 568T168 497T163 433Q163 416 169 406T195 396H215V286H198Q163 286 163
245Q163 220 168 183T179 108T190 37T195 -15Q195 -73 162 -102T69 -131H7V-25H24Q50 -25 59 -10T69 28Q69 46 65 76T54 139T44 203T39 254Q39 286 51 307T99 341Q64 353 52 376T39 438Z" />
<glyph unicode="~" glyph-name="asciitilde" horiz-adv-x="304" d="M145 338Q132 351 127 356T116 362Q109 362 109 351V298H9V409Q9 448 28 475T84 502Q107 502 123 493T160 464Q172 452 177 447T188 442Q195 442 195 453V506H296V385Q296 347 275 324T221 301Q196
301 181 309T145 338Z" />
<glyph unicode="&#xa1;" glyph-name="exclamdown" horiz-adv-x="192" d="M21 538H162V377H21V538ZM3 -206L52 352H131L179 -206H3Z" />
<glyph unicode="&#xa2;" glyph-name="cent" horiz-adv-x="372" d="M362 133Q362 102 352 76T323 30T275 -1T210 -12V-75H177V-12H173Q96 -12 55 28T13 144V387Q13 422 22 451T50 503T99 537T172 549H177V614H210V549H212Q253 549 281 539T328 509T354 464T362
408V325H231V400Q231 414 227 424T210 438V107Q221 112 225 122T230 145V242H362V133ZM157 400V145Q157 131 161 121T177 107V438Q157 431 157 400Z" />
<glyph unicode="&#xa3;" glyph-name="sterling" horiz-adv-x="459" d="M237 264Q237 219 223 188T188 135H297V250H445V0H10V119Q89 130 89 234V237Q89 261 86 296H10V425H73Q70 457 68 484T66 529V579Q66 617 75 649T104 704T159 741T243 754H267Q315 754 346
741T395 707T421 657T428 599V471H281V583Q281 599 276 608T256 618Q241 618 236 610T230 583V537Q230 517 230 488T233 425H362V296H237V264V264Z" />
<glyph unicode="&#xa5;" glyph-name="yen" horiz-adv-x="394" d="M281 0H117V204H20V294H117V316H20V405H102L-1 744H161L203 516L243 744H389L295 405H380V316H281V294H380V204H281V0Z" />
<glyph unicode="&#xa6;" glyph-name="brokenbar" horiz-adv-x="194" d="M150 -131H44V345H150V-131ZM150 381H44V808H150V381Z" />
<glyph unicode="&#xa7;" glyph-name="section" horiz-adv-x="447" d="M438 261Q438 209 413 183T351 144Q379 118 390 91T402 18V-30Q402 -108 359 -151T230 -195H195Q114 -195 76 -158T37 -39V50H192V-40Q192 -69 216 -69Q238 -69 238 -38V1Q238 24 232 39T204
71Q201 73 186 83T152 105T119 127T99 141Q72 159 55 175T27 209T13 248T9 296V323Q9 371 32 397T94 435Q68 463 57 495T46 577V598Q46 631 55 659T84 709T137 742T215 754H249Q326 754 366 720T407 604V525H253V598Q253 615 249 622T231 629Q218 629 214 621T209
598V571Q209 545 215 533T241 504Q244 502 260 492T294 468T329 444T350 429Q375 411 391 395T418 363T433 327T438 283V261ZM168 364Q152 360 152 339V329Q152 312 159 302T187 275L273 215Q280 217 284 222T288 243V250Q288 267 282 277T253 304L168 364Z" />
<glyph unicode="&#xa8;" glyph-name="dieresis" horiz-adv-x="342" d="M159 561H41V680H159V561ZM301 561H183V680H301V561Z" />
<glyph unicode="&#xa9;" glyph-name="copyright" horiz-adv-x="558" d="M276 -11Q215 -11 167 4T86 52T34 134T16 256V490Q16 621 86 688T277 755H289Q406 755 474 691T542 490V256Q542 185 522 135T468 52T387 5T286 -11H276ZM278 60H286Q377 60 418 115T460
274V472Q460 571 420 627T288 684H278Q185 684 143 632T100 472V274Q100 168 143 114T278 60ZM284 216Q294 216 296 223T299 241V340H421V233Q421 208 413 186T388 147T348 120T293 110H277Q208 110 174 146T140 246V498Q140 561 173 598T273 636H294Q352 636 386
607T420 514V435H299V508Q299 519 297 525T284 531Q275 531 272 526T269 508V241Q269 230 272 223T284 216Z" />
<glyph unicode="&#xaa;" glyph-name="ordfeminine" horiz-adv-x="238" d="M218 526Q218 519 225 519H234V443H149Q124 443 124 480Q117 468 102 454T62 439H61Q35 439 22 457T9 500V550Q9 577 19 591T52 617Q58 620 68 624T87 633T105 640T117 646Q124 649 124
658V669Q124 683 112 683Q101 683 101 669V647H13V678Q13 709 35 729T104 749H118Q172 749 195 730T218 674V526ZM124 583Q114 579 108 573Q102 567 102 551V520Q102 507 112 507Q124 507 124 521V583Z" />
<glyph unicode="&#xab;" glyph-name="guillemotleft" horiz-adv-x="315" d="M175 115H61L11 253V320L61 455H175L122 286L175 115ZM307 115H194L143 286L194 455H308L263 286L307 115Z" />
<glyph unicode="&#xae;" glyph-name="registered" horiz-adv-x="305" d="M149 394Q86 394 49 429T11 536V609Q11 676 47 713T149 750H159Q222 750 257 714T293 611V536Q293 502 283 476T254 431T211 404T158 394H149ZM149 433H158Q206 433 226 460T247 539V608Q247
655 227 683T159 711H149Q100 711 79 686T57 605V539Q57 488 78 461T149 433ZM146 465H86V685H175Q220 685 220 644V618Q220 592 199 583Q220 576 220 553V486Q220 474 224 469V465H166Q162 470 162 483V542Q162 554 152 554H146V465ZM146 598H153Q158 598 160
600T162 610V633Q162 644 153 644H146V598Z" />
<glyph unicode="&#xaf;" glyph-name="macron" horiz-adv-x="342" d="M61 670H281V570H61V670Z" />
<glyph unicode="&#xb0;" glyph-name="degree" horiz-adv-x="218" d="M6 648Q6 690 34 719T110 748Q132 748 151 740T183 719T204 687T212 648Q212 606 184 578T110 549Q63 549 35 577T6 648ZM73 649Q73 632 82 622T109 611Q126 611 135 621T145 649Q145 665 135
675T109 686Q91 686 82 676T73 649Z" />
<glyph unicode="&#xb4;" glyph-name="acute" horiz-adv-x="342" d="M130 707H258L208 561H84L130 707Z" />
<glyph unicode="&#xb6;" glyph-name="paragraph" horiz-adv-x="425" d="M419 632H378V0H277V632H244V0H142V343H136Q111 343 89 350T49 372T22 412T12 469V618Q12 681 46 712T137 744H419V632Z" />
<glyph unicode="&#xb7;" glyph-name="periodcentered" horiz-adv-x="170" d="M156 236H14V397H156V236Z" />
<glyph unicode="&#xb8;" glyph-name="cedilla" horiz-adv-x="342" d="M158 -196H83V-125H141Q162 -125 162 -110V-109Q162 -95 141 -95H98V0H166V-35H171Q260 -37 260 -110V-113Q260 -154 233 -175T158 -196Z" />
<glyph unicode="&#xba;" glyph-name="ordmasculine" horiz-adv-x="242" d="M112 439Q65 439 38 464T11 541V647Q11 697 38 723T112 749H131Q176 749 203 724T231 647V541Q231 491 204 465T131 439H112ZM110 531Q110 524 112 519T121 514Q129 514 131 519T134 531V657Q134
665 132 670T121 675Q114 675 112 670T110 657V531Z" />
<glyph unicode="&#xbb;" glyph-name="guillemotright" horiz-adv-x="314" d="M193 284L139 455H253L304 318V251L253 115H139L193 284ZM53 284L7 455H121L172 284L121 115H7L53 284Z" />
<glyph unicode="&#xbc;" glyph-name="onequarter" horiz-adv-x="420" d="M6 627V704Q36 704 47 715T61 744H150V403H49V627H6ZM399 744L103 0H9L304 744H399ZM195 123Q203 142 214 170T236 229T259 290T279 343H384V137H413V53H384V0H287V53H195V123ZM287 137V214Q285
207 281 197T274 175T266 154T260 137H287Z" />
<glyph unicode="&#xbd;" glyph-name="onehalf" horiz-adv-x="470" d="M399 744L103 0H9L304 744H399ZM6 627V704Q36 704 47 715T61 744H150V403H49V627H6ZM229 0V44Q229 61 232 74T244 103T269 137T313 184Q326 197 333 206T345 221T350 233T351 246V261Q351 276
339 276Q328 276 328 261V216H234V260Q234 277 238 293T254 321T284 340T331 348H348Q378 348 398 342T431 323T449 296T454 262V248Q454 230 450 216T437 189T414 163T380 135Q359 118 347 109T330 94T324 85T323 76H375V122H461V0H229Z" />
<glyph unicode="&#xbe;" glyph-name="threequarters" horiz-adv-x="481" d="M459 744L163 0H69L364 744H459ZM10 631V666Q10 703 32 726T108 750H121Q171 750 197 731T224 668V650Q224 625 213 612T190 594Q204 589 218 575T232 532V491Q232 446 207 421T124 395H109Q79
395 59 402T28 420T13 447T8 480V527H105V485Q105 472 116 472Q126 472 126 485V529Q126 542 115 542H70V618H112Q125 618 125 631V666Q125 680 113 680Q103 680 103 666V631H10ZM256 123Q264 142 275 170T297 229T320 290T340 343H445V137H474V53H445V0H348V53H256V123ZM348
137V214Q346 207 342 197T335 175T327 154T321 137H348Z" />
<glyph unicode="&#xbf;" glyph-name="questiondown" horiz-adv-x="377" d="M265 352V250Q265 232 264 219T259 193T249 169T232 140L187 69Q175 50 172 35T169 -2V-53Q169 -69 173 -76T191 -84Q205 -84 209 -76T213 -53V59H361V-57Q361 -87 355 -115T332 -166T285
-201T205 -215H170Q125 -215 95 -204T45 -172T17 -124T8 -62V-11Q8 12 10 31T17 66T30 99T53 133L117 215Q125 225 129 232T137 248T141 265T142 290V352H265ZM132 538H274V377H132V538Z" />
<glyph unicode="&#xc0;" glyph-name="Agrave" horiz-adv-x="397" d="M228 109H152L141 0H-2L93 744H296L400 0H240L228 109ZM167 256H213L190 482L167 256ZM261 767H135L87 890H216L261 767Z" />
<glyph unicode="&#xc1;" glyph-name="Aacute" horiz-adv-x="397" d="M228 109H152L141 0H-2L93 744H296L400 0H240L228 109ZM167 256H213L190 482L167 256ZM176 890H306L256 767H130L176 890Z" />
<glyph unicode="&#xc2;" glyph-name="Acircumflex" horiz-adv-x="397" d="M228 109H152L141 0H-2L93 744H296L400 0H240L228 109ZM167 256H213L190 482L167 256ZM327 767H219L192 814L166 767H58L128 890H256L327 767Z" />
<glyph unicode="&#xc3;" glyph-name="Atilde" horiz-adv-x="397" d="M228 109H152L141 0H-2L93 744H296L400 0H240L228 109ZM167 256H213L190 482L167 256ZM193 785Q182 790 176 792T164 795Q156 795 156 784V766H71V816Q71 851 87 871T132 891H133Q150 891 164
887T197 875Q211 869 216 867T227 864Q234 864 234 875V894H319V845Q319 809 302 790T258 770H256Q242 770 228 773T193 785Z" />
<glyph unicode="&#xc4;" glyph-name="Adieresis" horiz-adv-x="397" d="M228 109H152L141 0H-2L93 744H296L400 0H240L228 109ZM167 256H213L190 482L167 256ZM322 767H204V885H322V767ZM180 767H62V885H180V767Z" />
<glyph unicode="&#xc5;" glyph-name="Aring" horiz-adv-x="397" d="M228 109H152L141 0H-2L93 744H296L400 0H240L228 109ZM167 256H213L190 482L167 256ZM158 845Q158 830 167 820T192 810Q207 810 216 820T226 845Q226 859 217 869T192 879Q177 879 168 869T158
845ZM192 928Q229 928 253 905T278 845Q278 809 254 786T192 762Q155 762 131 785T106 845Q106 882 130 905T192 928Z" />
<glyph unicode="&#xc6;" glyph-name="AE" horiz-adv-x="552" d="M242 0V117H170L152 0H-6L134 744H535V589H406V463H507V305H406V157H543V0H242ZM242 263V568L193 263H242Z" />
<glyph unicode="&#xc7;" glyph-name="Ccedilla" horiz-adv-x="418" d="M241 176V325H404V171Q404 136 395 103T365 45T311 4T228 -12H199Q147 -12 112 2T56 43T25 106T16 185V563Q16 603 25 638T56 698T113 739T198 754H228Q277 754 311 741T365 704T395 649T404
580V458H241V573Q241 591 236 600T214 610Q198 610 193 602T187 573V176Q187 157 193 147T215 137Q230 137 235 148T241 176ZM210 -196H135V-125H193Q214 -125 214 -110V-109Q214 -95 193 -95H150V0H218V-35H223Q312 -37 312 -110V-113Q312 -154 285 -175T210 -196Z"
/>
<glyph unicode="&#xc8;" glyph-name="Egrave" horiz-adv-x="342" d="M327 744V590H181V463H298V305H181V157H333V0H18V744H327ZM500 767H374L326 890H455L500 767Z" />
<glyph unicode="&#xc9;" glyph-name="Eacute" horiz-adv-x="342" d="M327 744V590H181V463H298V305H181V157H333V0H18V744H327ZM156 890H286L236 767H110L156 890Z" />
<glyph unicode="&#xca;" glyph-name="Ecircumflex" horiz-adv-x="342" d="M327 744V590H181V463H298V305H181V157H333V0H18V744H327ZM309 767H201L174 814L148 767H40L110 890H238L309 767Z" />
<glyph unicode="&#xcb;" glyph-name="Edieresis" horiz-adv-x="342" d="M327 744V590H181V463H298V305H181V157H333V0H18V744H327ZM304 767H186V885H304V767ZM162 767H44V885H162V767Z" />
<glyph unicode="&#xcc;" glyph-name="Igrave" horiz-adv-x="201" d="M183 0H18V744H183V0ZM421 767H295L247 890H376L421 767Z" />
<glyph unicode="&#xcd;" glyph-name="Iacute" horiz-adv-x="201" d="M183 0H18V744H183V0ZM340 890H470L420 767H294L340 890Z" />
<glyph unicode="&#xce;" glyph-name="Icircumflex" horiz-adv-x="201" d="M183 0H18V744H183V0ZM490 1022H382L355 1069L329 1022H221L291 1145H419L490 1022Z" />
<glyph unicode="&#xcf;" glyph-name="Idieresis" horiz-adv-x="201" d="M183 0H18V744H183V0ZM487 767H369V885H487V767ZM345 767H227V885H345V767Z" />
<glyph unicode="&#xd0;" glyph-name="Eth" horiz-adv-x="426" d="M25 744H260Q330 744 370 707T410 580V171Q410 83 373 42T261 0H25V314H1V457H25V744ZM188 143H210Q229 143 235 154T242 188V563Q242 586 236 596T212 606H188V457H226V314H188V143Z" />
<glyph unicode="&#xd1;" glyph-name="Ntilde" horiz-adv-x="423" d="M178 744L263 384V744H404V0H259L161 388V0H18V744H178ZM219 785Q208 790 202 792T190 795Q182 795 182 784V766H97V816Q97 851 113 871T158 891H159Q176 891 190 887T223 875Q237 869 242 867T253
864Q260 864 260 875V894H345V845Q345 809 328 790T284 770H282Q268 770 254 773T219 785Z" />
<glyph unicode="&#xd2;" glyph-name="Ograve" horiz-adv-x="433" d="M418 191Q418 94 369 42T234 -11H202Q111 -11 64 41T16 191V544Q16 640 59 697T201 754H233Q282 754 317 739T375 697T407 631T418 544V191ZM247 561Q247 603 217 603Q200 603 194 593T187 561V180Q187
163 194 153T218 143Q234 143 240 153T247 180V561ZM281 767H155L107 890H236L281 767Z" />
<glyph unicode="&#xd3;" glyph-name="Oacute" horiz-adv-x="433" d="M418 191Q418 94 369 42T234 -11H202Q111 -11 64 41T16 191V544Q16 640 59 697T201 754H233Q282 754 317 739T375 697T407 631T418 544V191ZM247 561Q247 603 217 603Q200 603 194 593T187 561V180Q187
163 194 153T218 143Q234 143 240 153T247 180V561ZM199 890H329L279 767H153L199 890Z" />
<glyph unicode="&#xd4;" glyph-name="Ocircumflex" horiz-adv-x="433" d="M418 191Q418 94 369 42T234 -11H202Q111 -11 64 41T16 191V544Q16 640 59 697T201 754H233Q282 754 317 739T375 697T407 631T418 544V191ZM247 561Q247 603 217 603Q200 603 194 593T187
561V180Q187 163 194 153T218 143Q234 143 240 153T247 180V561ZM352 767H244L217 814L191 767H83L153 890H281L352 767Z" />
<glyph unicode="&#xd5;" glyph-name="Otilde" horiz-adv-x="433" d="M418 191Q418 94 369 42T234 -11H202Q111 -11 64 41T16 191V544Q16 640 59 697T201 754H233Q282 754 317 739T375 697T407 631T418 544V191ZM247 561Q247 603 217 603Q200 603 194 593T187 561V180Q187
163 194 153T218 143Q234 143 240 153T247 180V561ZM215 788Q204 793 198 795T186 798Q178 798 178 787V769H93V819Q93 854 109 874T154 894H155Q172 894 186 890T219 878Q233 872 238 870T249 867Q256 867 256 878V897H341V848Q341 812 324 793T280 773H278Q264
773 250 776T215 788Z" />
<glyph unicode="&#xd6;" glyph-name="Odieresis" horiz-adv-x="433" d="M418 191Q418 94 369 42T234 -11H202Q111 -11 64 41T16 191V544Q16 640 59 697T201 754H233Q282 754 317 739T375 697T407 631T418 544V191ZM247 561Q247 603 217 603Q200 603 194 593T187
561V180Q187 163 194 153T218 143Q234 143 240 153T247 180V561ZM347 767H229V885H347V767ZM205 767H87V885H205V767Z" />
<glyph unicode="&#xd7;" glyph-name="multiply" horiz-adv-x="320" d="M160 231L79 148L9 216L91 300L9 384L79 455L161 371L242 455L312 386L229 302L312 218L242 148L160 231Z" />
<glyph unicode="&#xd8;" glyph-name="Oslash" horiz-adv-x="429" d="M413 191Q413 94 364 42T229 -11H202Q136 -11 94 25L82 0H0L38 84Q27 106 22 132T16 191V544Q16 640 59 697T201 754H227Q293 754 332 721L343 744H426L389 661Q400 639 406 611T413 545V191ZM215
142Q233 142 239 152T246 180V375L183 212V180Q183 163 190 153T215 142ZM215 604Q197 604 190 594T183 561V378L246 541V561Q246 604 215 604Z" />
<glyph unicode="&#xd9;" glyph-name="Ugrave" horiz-adv-x="430" d="M18 744H188V185Q188 147 215 147Q230 147 236 157T242 185V744H412V177Q412 92 365 40T230 -12H198Q105 -12 62 39T18 177V744ZM280 767H154L106 890H235L280 767Z" />
<glyph unicode="&#xda;" glyph-name="Uacute" horiz-adv-x="430" d="M18 744H188V185Q188 147 215 147Q230 147 236 157T242 185V744H412V177Q412 92 365 40T230 -12H198Q105 -12 62 39T18 177V744ZM196 890H326L276 767H150L196 890Z" />
<glyph unicode="&#xdb;" glyph-name="Ucircumflex" horiz-adv-x="430" d="M18 744H188V185Q188 147 215 147Q230 147 236 157T242 185V744H412V177Q412 92 365 40T230 -12H198Q105 -12 62 39T18 177V744ZM348 767H240L213 814L187 767H79L149 890H277L348 767Z" />
<glyph unicode="&#xdc;" glyph-name="Udieresis" horiz-adv-x="430" d="M18 744H188V185Q188 147 215 147Q230 147 236 157T242 185V744H412V177Q412 92 365 40T230 -12H198Q105 -12 62 39T18 177V744ZM344 767H226V885H344V767ZM202 767H84V885H202V767Z" />
<glyph unicode="&#xdd;" glyph-name="Yacute" horiz-adv-x="382" d="M278 281V0H114V278L-6 744H159L200 499L239 744H387L278 281ZM179 890H309L259 767H133L179 890Z" />
<glyph unicode="&#xde;" glyph-name="Thorn" horiz-adv-x="410" d="M183 180V0H18V744H183V602H260Q326 602 362 570T398 460V328Q398 251 360 216T261 180H183ZM183 309H206Q222 309 228 317T234 344V443Q234 460 229 468T205 477H183V309Z" />
<glyph unicode="&#xdf;" glyph-name="germandbls" horiz-adv-x="399" d="M315 443Q346 433 367 408T388 334V134Q388 71 358 36T264 0H191V132H205Q221 132 221 153V318Q221 329 218 334T203 339H191V470H203Q220 470 220 492V593Q220 606 215 614T199 622H194Q175
622 175 594V0H16V593Q16 626 25 654T54 704T104 737T177 749H215Q257 749 287 739T337 710T366 666T375 609V543Q375 522 370 506T355 477T336 456T315 443Z" />
<glyph unicode="&#xe0;" glyph-name="agrave" horiz-adv-x="388" d="M202 259Q197 256 189 251T174 238Q168 230 166 222T163 199V136Q163 124 167 117T182 110Q193 110 197 117T202 136V259ZM11 202Q11 245 28 272T79 317Q89 322 105 329T139 344T170 357T191
367Q197 370 199 373T202 387V415Q202 439 183 439H180Q168 439 164 433T160 415V365H18V426Q18 479 54 513T170 547H192Q278 547 317 515T356 420V143Q356 136 359 134T371 131H385V0H244Q203 0 203 61Q197 51 187 39T165 17T136 1T100 -6H96Q75 -6 59 2T33 25T17
57T11 96V202ZM501 561H378L328 707H456L501 561Z" />
<glyph unicode="&#xe1;" glyph-name="aacute" horiz-adv-x="388" d="M202 259Q197 256 189 251T174 238Q168 230 166 222T163 199V136Q163 124 167 117T182 110Q193 110 197 117T202 136V259ZM11 202Q11 245 28 272T79 317Q89 322 105 329T139 344T170 357T191
367Q197 370 199 373T202 387V415Q202 439 183 439H180Q168 439 164 433T160 415V365H18V426Q18 479 54 513T170 547H192Q278 547 317 515T356 420V143Q356 136 359 134T371 131H385V0H244Q203 0 203 61Q197 51 187 39T165 17T136 1T100 -6H96Q75 -6 59 2T33 25T17
57T11 96V202ZM167 707H295L245 561H121L167 707Z" />
<glyph unicode="&#xe2;" glyph-name="acircumflex" horiz-adv-x="388" d="M202 259Q197 256 189 251T174 238Q168 230 166 222T163 199V136Q163 124 167 117T182 110Q193 110 197 117T202 136V259ZM11 202Q11 245 28 272T79 317Q89 322 105 329T139 344T170 357T191
367Q197 370 199 373T202 387V415Q202 439 183 439H180Q168 439 164 433T160 415V365H18V426Q18 479 54 513T170 547H192Q278 547 317 515T356 420V143Q356 136 359 134T371 131H385V0H244Q203 0 203 61Q197 51 187 39T165 17T136 1T100 -6H96Q75 -6 59 2T33 25T17
57T11 96V202ZM317 561H208L184 626L159 561H52L119 707H249L317 561Z" />
<glyph unicode="&#xe3;" glyph-name="atilde" horiz-adv-x="388" d="M202 259Q197 256 189 251T174 238Q168 230 166 222T163 199V136Q163 124 167 117T182 110Q193 110 197 117T202 136V259ZM11 202Q11 245 28 272T79 317Q89 322 105 329T139 344T170 357T191
367Q197 370 199 373T202 387V415Q202 439 183 439H180Q168 439 164 433T160 415V365H18V426Q18 479 54 513T170 547H192Q278 547 317 515T356 420V143Q356 136 359 134T371 131H385V0H244Q203 0 203 61Q197 51 187 39T165 17T136 1T100 -6H96Q75 -6 59 2T33 25T17
57T11 96V202ZM305 694V628Q305 600 290 582T244 563H242Q227 563 214 567T179 583Q168 588 163 591T152 594Q145 594 145 582V562H59V624Q59 654 74 673T121 693H122Q138 693 151 689T185 674Q196 669 202 666T213 663Q219 663 219 674V694H305Z" />
<glyph unicode="&#xe4;" glyph-name="adieresis" horiz-adv-x="388" d="M202 259Q197 256 189 251T174 238Q168 230 166 222T163 199V136Q163 124 167 117T182 110Q193 110 197 117T202 136V259ZM11 202Q11 245 28 272T79 317Q89 322 105 329T139 344T170 357T191
367Q197 370 199 373T202 387V415Q202 439 183 439H180Q168 439 164 433T160 415V365H18V426Q18 479 54 513T170 547H192Q278 547 317 515T356 420V143Q356 136 359 134T371 131H385V0H244Q203 0 203 61Q197 51 187 39T165 17T136 1T100 -6H96Q75 -6 59 2T33 25T17
57T11 96V202ZM170 563H52V682H170V563ZM312 563H194V682H312V563Z" />
<glyph unicode="&#xe5;" glyph-name="aring" horiz-adv-x="388" d="M202 259Q197 256 189 251T174 238Q168 230 166 222T163 199V136Q163 124 167 117T182 110Q193 110 197 117T202 136V259ZM11 202Q11 245 28 272T79 317Q89 322 105 329T139 344T170 357T191
367Q197 370 199 373T202 387V415Q202 439 183 439H180Q168 439 164 433T160 415V365H18V426Q18 479 54 513T170 547H192Q278 547 317 515T356 420V143Q356 136 359 134T371 131H385V0H244Q203 0 203 61Q197 51 187 39T165 17T136 1T100 -6H96Q75 -6 59 2T33 25T17
57T11 96V202ZM181 609Q196 609 205 619T215 644Q215 658 206 668T181 678Q166 678 157 668T147 644Q147 629 156 619T181 609ZM181 561Q144 561 120 584T95 644Q95 681 119 704T181 727Q218 727 242 704T267 644Q267 608 243 585T181 561Z" />
<glyph unicode="&#xe6;" glyph-name="ae" horiz-adv-x="563" d="M219 65Q202 39 173 17T102 -6H99Q77 -6 61 2T33 25T17 58T11 97V187Q11 231 28 258T79 303Q89 309 105 316T139 330T170 343T191 353Q197 356 199 359T202 373V415Q202 439 183 439H179Q160 439
160 415V351H18V426Q18 479 54 513T169 547H189Q233 547 255 536T286 518Q294 526 315 537T377 549H392Q428 549 457 540T508 512T540 461T552 384V250H357V138Q358 121 362 115T378 108Q392 108 396 116T400 138V214H552V143Q552 71 511 30T393 -11H363Q328 -11
303 -4T262 14T235 38T219 65ZM202 246Q197 243 189 238T174 225Q167 217 165 209T163 185V136Q163 110 182 110Q193 110 197 117T202 136V246ZM357 349H402V411Q402 427 398 435T380 443Q366 443 362 435T357 412V349Z" />
<glyph unicode="&#xe7;" glyph-name="ccedilla" horiz-adv-x="368" d="M357 241V133Q357 102 348 76T319 30T271 -1T205 -12H175Q96 -12 55 29T13 145V385Q13 420 21 450T49 502T99 536T174 549H207Q249 549 277 538T324 508T349 463T357 406V325H213V403Q213
417 209 424T192 432Q181 432 178 425T174 404V139Q174 127 177 120T192 112Q212 112 212 138V241H357ZM186 -196H111V-125H169Q190 -125 190 -110V-109Q190 -95 169 -95H126V0H194V-35H199Q288 -37 288 -110V-113Q288 -154 261 -175T186 -196Z" />
<glyph unicode="&#xe8;" glyph-name="egrave" horiz-adv-x="375" d="M205 549Q277 549 320 511T363 389V251H168V138Q168 108 190 108Q202 108 206 116T211 138V214H363V140Q363 67 319 28T205 -11H174Q100 -11 57 27T13 143V389Q13 424 22 453T52 504T102 537T174
549H205ZM168 349H213V410Q213 427 209 435T190 443Q176 443 172 435T168 410V349ZM506 561H383L333 707H461L506 561Z" />
<glyph unicode="&#xe9;" glyph-name="eacute" horiz-adv-x="375" d="M205 549Q277 549 320 511T363 389V251H168V138Q168 108 190 108Q202 108 206 116T211 138V214H363V140Q363 67 319 28T205 -11H174Q100 -11 57 27T13 143V389Q13 424 22 453T52 504T102 537T174
549H205ZM168 349H213V410Q213 427 209 435T190 443Q176 443 172 435T168 410V349ZM173 707H301L251 561H127L173 707Z" />
<glyph unicode="&#xea;" glyph-name="ecircumflex" horiz-adv-x="375" d="M205 549Q277 549 320 511T363 389V251H168V138Q168 108 190 108Q202 108 206 116T211 138V214H363V140Q363 67 319 28T205 -11H174Q100 -11 57 27T13 143V389Q13 424 22 453T52 504T102
537T174 549H205ZM168 349H213V410Q213 427 209 435T190 443Q176 443 172 435T168 410V349ZM322 561H213L189 626L164 561H57L124 707H254L322 561Z" />
<glyph unicode="&#xeb;" glyph-name="edieresis" horiz-adv-x="375" d="M205 549Q277 549 320 511T363 389V251H168V138Q168 108 190 108Q202 108 206 116T211 138V214H363V140Q363 67 319 28T205 -11H174Q100 -11 57 27T13 143V389Q13 424 22 453T52 504T102
537T174 549H205ZM168 349H213V410Q213 427 209 435T190 443Q176 443 172 435T168 410V349ZM176 565H58V684H176V565ZM318 565H200V684H318V565Z" />
<glyph unicode="&#xec;" glyph-name="igrave" horiz-adv-x="191" d="M176 0H16V538H176V0ZM415 561H292L242 707H370L415 561Z" />
<glyph unicode="&#xed;" glyph-name="iacute" horiz-adv-x="191" d="M176 0H16V538H176V0ZM338 707H466L416 561H292L338 707Z" />
<glyph unicode="&#xee;" glyph-name="icircumflex" horiz-adv-x="191" d="M212 561H114L95 630L75 561H-21L30 707H160L212 561ZM176 0H16V538H176V0Z" />
<glyph unicode="&#xef;" glyph-name="idieresis" horiz-adv-x="191" d="M86 561H-20V681H86V561ZM211 561H105V681H211V561ZM176 0H16V538H176V0Z" />
<glyph unicode="&#xf0;" glyph-name="eth" horiz-adv-x="392" d="M66 637L126 660L80 744H234L254 709L332 739V648L296 634L332 571Q346 546 355 525T369 484T377 440T379 389V162Q379 125 368 94T334 39T281 2T209 -11H182Q93 -11 53 35T13 156V404Q13 464 39
502T111 540H116Q151 540 177 523T223 484L167 585L66 546V637ZM220 390Q220 404 216 414T196 424Q181 424 177 414T173 390V153Q173 138 177 128T196 118Q210 118 215 128T220 153V390Z" />
<glyph unicode="&#xf1;" glyph-name="ntilde" horiz-adv-x="399" d="M16 538H174V470Q194 499 221 521T286 543H293Q320 543 337 533T364 507T379 474T383 443V0H221V386Q221 398 217 406T198 415Q184 415 180 406T176 383V0H16V538ZM321 692V626Q321 598 306
580T260 561H258Q243 561 230 565T195 581Q184 586 179 589T168 592Q161 592 161 580V560H75V622Q75 652 90 671T137 691H138Q154 691 167 687T201 672Q212 667 218 664T229 661Q235 661 235 672V692H321Z" />
<glyph unicode="&#xf2;" glyph-name="ograve" horiz-adv-x="396" d="M13 167V372Q13 460 57 504T182 549H213Q296 549 339 505T383 373V168Q383 83 338 36T213 -11H181Q94 -11 54 35T13 167ZM174 390V152Q174 137 178 128T197 118Q211 118 216 127T221 152V390Q221
405 216 414T197 424Q183 424 179 415T174 390ZM260 561H137L87 707H215L260 561Z" />
<glyph unicode="&#xf3;" glyph-name="oacute" horiz-adv-x="396" d="M13 167V372Q13 460 57 504T182 549H213Q296 549 339 505T383 373V168Q383 83 338 36T213 -11H181Q94 -11 54 35T13 167ZM174 390V152Q174 137 178 128T197 118Q211 118 216 127T221 152V390Q221
405 216 414T197 424Q183 424 179 415T174 390ZM182 707H310L260 561H136L182 707Z" />
<glyph unicode="&#xf4;" glyph-name="ocircumflex" horiz-adv-x="396" d="M13 167V372Q13 460 57 504T182 549H213Q296 549 339 505T383 373V168Q383 83 338 36T213 -11H181Q94 -11 54 35T13 167ZM174 390V152Q174 137 178 128T197 118Q211 118 216 127T221 152V390Q221
405 216 414T197 424Q183 424 179 415T174 390ZM331 561H222L198 626L173 561H66L133 707H263L331 561Z" />
<glyph unicode="&#xf5;" glyph-name="otilde" horiz-adv-x="396" d="M13 167V372Q13 460 57 504T182 549H213Q296 549 339 505T383 373V168Q383 83 338 36T213 -11H181Q94 -11 54 35T13 167ZM174 390V152Q174 137 178 128T197 118Q211 118 216 127T221 152V390Q221
405 216 414T197 424Q183 424 179 415T174 390ZM319 696V630Q319 602 304 584T258 565H256Q241 565 228 569T193 585Q182 590 177 593T166 596Q159 596 159 584V564H73V626Q73 656 88 675T135 695H136Q152 695 165 691T199 676Q210 671 216 668T227 665Q233 665
233 676V696H319Z" />
<glyph unicode="&#xf6;" glyph-name="odieresis" horiz-adv-x="396" d="M13 167V372Q13 460 57 504T182 549H213Q296 549 339 505T383 373V168Q383 83 338 36T213 -11H181Q94 -11 54 35T13 167ZM174 390V152Q174 137 178 128T197 118Q211 118 216 127T221 152V390Q221
405 216 414T197 424Q183 424 179 415T174 390ZM185 565H67V684H185V565ZM327 565H209V684H327V565Z" />
<glyph unicode="&#xf7;" glyph-name="divide" horiz-adv-x="346" d="M333 351V252H14V351H333ZM228 375H118V484H228V375ZM228 117H118V227H228V117Z" />
<glyph unicode="&#xf8;" glyph-name="oslash" horiz-adv-x="388" d="M13 166V372Q13 463 58 506T185 549H203Q235 549 259 542T303 520L314 538H391L351 471Q362 452 368 427T374 373V167Q374 81 329 35T201 -11H185Q152 -11 127 -3T83 18L72 0H-4L35 66Q13 106
13 166ZM219 390Q219 404 215 415T193 426Q178 426 174 415T169 390V278L219 377V390ZM193 117Q209 117 214 127T219 152V263L169 165V152Q169 136 174 127T193 117Z" />
<glyph unicode="&#xf9;" glyph-name="ugrave" horiz-adv-x="395" d="M379 0H222V69Q202 40 176 18T110 -4H105Q81 -4 64 6T37 31T21 63T16 97V538H177V152Q177 141 181 132T198 123Q212 123 216 132T220 154V538H379V0ZM261 561H138L88 707H216L261 561Z" />
<glyph unicode="&#xfa;" glyph-name="uacute" horiz-adv-x="395" d="M379 0H222V69Q202 40 176 18T110 -4H105Q81 -4 64 6T37 31T21 63T16 97V538H177V152Q177 141 181 132T198 123Q212 123 216 132T220 154V538H379V0ZM182 707H310L260 561H136L182 707Z" />
<glyph unicode="&#xfb;" glyph-name="ucircumflex" horiz-adv-x="395" d="M379 0H222V69Q202 40 176 18T110 -4H105Q81 -4 64 6T37 31T21 63T16 97V538H177V152Q177 141 181 132T198 123Q212 123 216 132T220 154V538H379V0ZM330 561H221L197 626L172 561H65L132
707H262L330 561Z" />
<glyph unicode="&#xfc;" glyph-name="udieresis" horiz-adv-x="395" d="M379 0H222V69Q202 40 176 18T110 -4H105Q81 -4 64 6T37 31T21 63T16 97V538H177V152Q177 141 181 132T198 123Q212 123 216 132T220 154V538H379V0ZM186 561H68V680H186V561ZM328 561H210V680H328V561Z"
/>
<glyph unicode="&#xfd;" glyph-name="yacute" horiz-adv-x="369" d="M-2 538H156L189 252L217 538H372L249 -106Q240 -153 217 -170T168 -188H27V-52H84Q95 -52 98 -47T103 -30L104 -17Q105 -9 104 -1T100 22L-2 538ZM168 707H296L246 561H122L168 707Z" />
<glyph unicode="&#xfe;" glyph-name="thorn" horiz-adv-x="397" d="M176 744V473Q199 508 225 526T286 545H289Q337 545 359 509T382 416V117Q382 88 374 65T352 25T320 -1T280 -11H277Q245 -11 221 5T176 51V-188H16V744H176ZM176 137Q176 123 181 114T197 105Q211
105 215 114T219 136V395Q219 409 215 417T197 425Q184 425 180 417T176 395V137Z" />
<glyph unicode="&#xff;" glyph-name="ydieresis" horiz-adv-x="369" d="M-2 538H156L189 252L217 538H372L249 -106Q240 -153 217 -170T168 -188H27V-52H84Q95 -52 98 -47T103 -30L104 -17Q105 -9 104 -1T100 22L-2 538ZM173 561H55V680H173V561ZM315 561H197V680H315V561Z"
/>
<glyph unicode="&#x100;" glyph-name="Amacron" horiz-adv-x="397" d="M228 109H152L141 0H-2L93 744H296L400 0H240L228 109ZM167 256H213L190 482L167 256ZM84 874H304V774H84V874Z" />
<glyph unicode="&#x101;" glyph-name="amacron" horiz-adv-x="388" d="M202 259Q197 256 189 251T174 238Q168 230 166 222T163 199V136Q163 124 167 117T182 110Q193 110 197 117T202 136V259ZM11 202Q11 245 28 272T79 317Q89 322 105 329T139 344T170 357T191
367Q197 370 199 373T202 387V415Q202 439 183 439H180Q168 439 164 433T160 415V365H18V426Q18 479 54 513T170 547H192Q278 547 317 515T356 420V143Q356 136 359 134T371 131H385V0H244Q203 0 203 61Q197 51 187 39T165 17T136 1T100 -6H96Q75 -6 59 2T33 25T17
57T11 96V202ZM72 672H292V572H72V672Z" />
<glyph unicode="&#x102;" glyph-name="Abreve" horiz-adv-x="397" d="M228 109H152L141 0H-2L93 744H296L400 0H240L228 109ZM167 256H213L190 482L167 256ZM196 764H191Q134 764 102 795T70 877V885H169V879Q169 867 175 860T193 852H194Q206 852 212 859T218
879V885H316V877Q316 827 283 796T196 764Z" />
<glyph unicode="&#x103;" glyph-name="abreve" horiz-adv-x="388" d="M202 259Q197 256 189 251T174 238Q168 230 166 222T163 199V136Q163 124 167 117T182 110Q193 110 197 117T202 136V259ZM11 202Q11 245 28 272T79 317Q89 322 105 329T139 344T170 357T191
367Q197 370 199 373T202 387V415Q202 439 183 439H180Q168 439 164 433T160 415V365H18V426Q18 479 54 513T170 547H192Q278 547 317 515T356 420V143Q356 136 359 134T371 131H385V0H244Q203 0 203 61Q197 51 187 39T165 17T136 1T100 -6H96Q75 -6 59 2T33 25T17
57T11 96V202ZM181 561H177Q120 561 88 592T55 680V692H154V685Q154 650 178 650H179Q204 650 204 685V692H301V680Q301 623 268 592T181 561Z" />
<glyph unicode="&#x104;" glyph-name="Aogonek" horiz-adv-x="397" d="M228 109H152L141 0H-2L93 744H296L400 0H240L228 109ZM167 256H213L190 482L167 256ZM245 -110Q245 -82 266 -56T327 0H398Q374 -29 365 -44T356 -76V-79Q356 -100 383 -100H398V-188H329Q292
-188 269 -171T245 -123V-110Z" />
<glyph unicode="&#x105;" glyph-name="aogonek" horiz-adv-x="388" d="M202 259Q197 256 189 251T174 238Q168 230 166 222T163 199V136Q163 124 167 117T182 110Q193 110 197 117T202 136V259ZM11 202Q11 245 28 272T79 317Q89 322 105 329T139 344T170 357T191
367Q197 370 199 373T202 387V415Q202 439 183 439H180Q168 439 164 433T160 415V365H18V426Q18 479 54 513T170 547H192Q278 547 317 515T356 420V143Q356 136 359 134T371 131H385V0H244Q203 0 203 61Q197 51 187 39T165 17T136 1T100 -6H96Q75 -6 59 2T33 25T17
57T11 96V202ZM231 -110Q231 -82 252 -56T313 0H384Q360 -29 351 -44T342 -76V-79Q342 -100 369 -100H384V-188H315Q278 -188 255 -171T231 -123V-110Z" />
<glyph unicode="&#x106;" glyph-name="Cacute" horiz-adv-x="418" d="M199 890H328L280 771H153L199 890ZM241 176V325H404V171Q404 136 395 103T365 45T311 4T228 -12H199Q147 -12 112 2T56 43T25 106T16 185V563Q16 603 25 638T56 698T113 739T198 754H228Q277
754 311 741T365 704T395 649T404 580V458H241V573Q241 591 236 600T214 610Q198 610 193 602T187 573V176Q187 157 193 147T215 137Q230 137 235 148T241 176Z" />
<glyph unicode="&#x107;" glyph-name="cacute" horiz-adv-x="368" d="M174 707H302L253 566H128L174 707ZM357 241V133Q357 102 348 76T319 30T271 -1T205 -12H175Q96 -12 55 29T13 145V385Q13 420 21 450T49 502T99 536T174 549H207Q249 549 277 538T324 508T349
463T357 406V325H213V403Q213 417 209 424T192 432Q181 432 178 425T174 404V139Q174 127 177 120T192 112Q212 112 212 138V241H357Z" />
<glyph unicode="&#x108;" glyph-name="Ccircumflex" horiz-adv-x="418" d="M351 771H242L214 815L189 771H80L148 890H282L351 771ZM241 176V325H404V171Q404 136 395 103T365 45T311 4T228 -12H199Q147 -12 112 2T56 43T25 106T16 185V563Q16 603 25 638T56 698T113
739T198 754H228Q277 754 311 741T365 704T395 649T404 580V458H241V573Q241 591 236 600T214 610Q198 610 193 602T187 573V176Q187 157 193 147T215 137Q230 137 235 148T241 176Z" />
<glyph unicode="&#x109;" glyph-name="ccircumflex" horiz-adv-x="368" d="M323 566H214L190 626L165 566H59L126 707H255L323 566ZM357 241V133Q357 102 348 76T319 30T271 -1T205 -12H175Q96 -12 55 29T13 145V385Q13 420 21 450T49 502T99 536T174 549H207Q249
549 277 538T324 508T349 463T357 406V325H213V403Q213 417 209 424T192 432Q181 432 178 425T174 404V139Q174 127 177 120T192 112Q212 112 212 138V241H357Z" />
<glyph unicode="&#x10a;" glyph-name="Cdotaccent" horiz-adv-x="418" d="M294 771H134V908H294V771ZM241 176V325H404V171Q404 136 395 103T365 45T311 4T228 -12H199Q147 -12 112 2T56 43T25 106T16 185V563Q16 603 25 638T56 698T113 739T198 754H228Q277 754
311 741T365 704T395 649T404 580V458H241V573Q241 591 236 600T214 610Q198 610 193 602T187 573V176Q187 157 193 147T215 137Q230 137 235 148T241 176Z" />
<glyph unicode="&#x10b;" glyph-name="cdotaccent" horiz-adv-x="368" d="M271 566H111V702H271V566ZM357 241V133Q357 102 348 76T319 30T271 -1T205 -12H175Q96 -12 55 29T13 145V385Q13 420 21 450T49 502T99 536T174 549H207Q249 549 277 538T324 508T349
463T357 406V325H213V403Q213 417 209 424T192 432Q181 432 178 425T174 404V139Q174 127 177 120T192 112Q212 112 212 138V241H357Z" />
<glyph unicode="&#x10c;" glyph-name="Ccaron" horiz-adv-x="418" d="M79 890H189L215 842L241 890H352L282 771H148L79 890ZM241 176V325H404V171Q404 136 395 103T365 45T311 4T228 -12H199Q147 -12 112 2T56 43T25 106T16 185V563Q16 603 25 638T56 698T113
739T198 754H228Q277 754 311 741T365 704T395 649T404 580V458H241V573Q241 591 236 600T214 610Q198 610 193 602T187 573V176Q187 157 193 147T215 137Q230 137 235 148T241 176Z" />
<glyph unicode="&#x10d;" glyph-name="ccaron" horiz-adv-x="368" d="M60 707H168L192 643L217 707H324L258 566H126L60 707ZM357 241V133Q357 102 348 76T319 30T271 -1T205 -12H175Q96 -12 55 29T13 145V385Q13 420 21 450T49 502T99 536T174 549H207Q249 549
277 538T324 508T349 463T357 406V325H213V403Q213 417 209 424T192 432Q181 432 178 425T174 404V139Q174 127 177 120T192 112Q212 112 212 138V241H357Z" />
<glyph unicode="&#x10e;" glyph-name="Dcaron" horiz-adv-x="420" d="M54 890H163L188 842L214 890H323L252 767H125L54 890ZM18 744H254Q323 744 363 707T403 580V171Q403 83 366 42T255 0H18V744ZM181 143H204Q222 143 228 154T235 188V563Q235 586 229 596T206
606H181V143Z" />
<glyph unicode="&#x10f;" glyph-name="dcaron" horiz-adv-x="397" d="M402 744H506L495 586H396L402 744ZM382 744V0H223V60Q216 49 206 37T183 14T154 -4T120 -11H117Q94 -11 76 -1T44 27T23 68T15 118V423Q15 447 21 469T39 507T68 534T107 544H113Q133 544
149 538T179 521T203 499T222 477V744H382ZM222 385Q222 401 218 411T199 421Q185 421 181 413T176 389V143Q176 129 180 120T199 111Q213 111 217 121T222 146V385Z" />
<glyph unicode="&#x110;" glyph-name="Dcroat" horiz-adv-x="426" d="M25 744H260Q330 744 370 707T410 580V171Q410 83 373 42T261 0H25V314H1V457H25V744ZM188 143H210Q229 143 235 154T242 188V563Q242 586 236 596T212 606H188V457H226V314H188V143Z" />
<glyph unicode="&#x111;" glyph-name="dcroat" horiz-adv-x="397" d="M143 687H411V575H143V687ZM382 744V0H223V60Q216 49 206 37T183 14T154 -4T120 -11H117Q94 -11 76 -1T44 27T23 68T15 118V423Q15 447 21 469T39 507T68 534T107 544H113Q133 544 149 538T179
521T203 499T222 477V744H382ZM222 385Q222 401 218 411T199 421Q185 421 181 413T176 389V143Q176 129 180 120T199 111Q213 111 217 121T222 146V385Z" />
<glyph unicode="&#x112;" glyph-name="Emacron" horiz-adv-x="342" d="M327 744V590H181V463H298V305H181V157H333V0H18V744H327ZM64 874H284V774H64V874Z" />
<glyph unicode="&#x113;" glyph-name="emacron" horiz-adv-x="375" d="M205 549Q277 549 320 511T363 389V251H168V138Q168 108 190 108Q202 108 206 116T211 138V214H363V140Q363 67 319 28T205 -11H174Q100 -11 57 27T13 143V389Q13 424 22 453T52 504T102 537T174
549H205ZM168 349H213V410Q213 427 209 435T190 443Q176 443 172 435T168 410V349ZM78 674H298V574H78V674Z" />
<glyph unicode="&#x114;" glyph-name="Ebreve" horiz-adv-x="342" d="M327 744V590H181V463H298V305H181V157H333V0H18V744H327ZM179 764H174Q117 764 85 795T53 877V885H152V879Q152 867 158 860T176 852H177Q189 852 195 859T201 879V885H299V877Q299 827 266
796T179 764Z" />
<glyph unicode="&#x115;" glyph-name="ebreve" horiz-adv-x="375" d="M205 549Q277 549 320 511T363 389V251H168V138Q168 108 190 108Q202 108 206 116T211 138V214H363V140Q363 67 319 28T205 -11H174Q100 -11 57 27T13 143V389Q13 424 22 453T52 504T102 537T174
549H205ZM168 349H213V410Q213 427 209 435T190 443Q176 443 172 435T168 410V349ZM191 563H187Q130 563 98 594T65 682V694H164V687Q164 652 188 652H189Q214 652 214 687V694H311V682Q311 625 278 594T191 563Z" />
<glyph unicode="&#x116;" glyph-name="Edotaccent" horiz-adv-x="342" d="M257 767H97V908H257V767ZM327 744V590H181V463H298V305H181V157H333V0H18V744H327Z" />
<glyph unicode="&#x117;" glyph-name="edotaccent" horiz-adv-x="375" d="M269 566H109V702H269V566ZM205 549Q277 549 320 511T363 389V251H168V138Q168 108 190 108Q202 108 206 116T211 138V214H363V140Q363 67 319 28T205 -11H174Q100 -11 57 27T13 143V389Q13
424 22 453T52 504T102 537T174 549H205ZM168 349H213V410Q213 427 209 435T190 443Q176 443 172 435T168 410V349Z" />
<glyph unicode="&#x118;" glyph-name="Eogonek" horiz-adv-x="342" d="M131 -110Q131 -82 152 -56T213 0H284Q260 -29 251 -44T242 -76V-79Q242 -100 269 -100H284V-188H215Q178 -188 155 -171T131 -123V-110ZM327 744V590H181V463H298V305H181V157H333V0H18V744H327Z" />
<glyph unicode="&#x119;" glyph-name="eogonek" horiz-adv-x="375" d="M301 -1Q279 -27 270 -43T260 -76V-79Q260 -100 286 -100H302V-188H232Q196 -188 172 -171T148 -123V-110Q148 -84 167 -60T221 -10Q216 -11 213 -11T205 -11H174Q100 -11 57 27T13 143V389Q13
424 22 453T52 504T102 537T174 549H205Q277 549 320 511T363 389V251H168V138Q168 108 190 108Q202 108 206 116T211 138V214H363V142Q363 115 358 95T344 58T324 27T301 -1ZM168 349H213V410Q213 427 209 435T190 443Q176 443 172 435T168 410V349Z" />
<glyph unicode="&#x11a;" glyph-name="Ecaron" horiz-adv-x="342" d="M42 890H151L176 842L202 890H311L240 767H113L42 890ZM327 744V590H181V463H298V305H181V157H333V0H18V744H327Z" />
<glyph unicode="&#x11b;" glyph-name="ecaron" horiz-adv-x="375" d="M57 705H165L189 643L214 705H322L255 566H123L57 705ZM205 549Q277 549 320 511T363 389V251H168V138Q168 108 190 108Q202 108 206 116T211 138V214H363V140Q363 67 319 28T205 -11H174Q100
-11 57 27T13 143V389Q13 424 22 453T52 504T102 537T174 549H205ZM168 349H213V410Q213 427 209 435T190 443Q176 443 172 435T168 410V349Z" />
<glyph unicode="&#x11c;" glyph-name="Gcircumflex" horiz-adv-x="427" d="M349 771H240L213 815L187 771H79L147 890H280L349 771ZM155 -10Q120 -10 94 3T51 40T25 94T16 159V565Q16 603 25 637T56 697T112 738T198 754H226Q280 754 315 739T370 698T397 641T405
575V489H245V573Q245 591 239 601T215 612Q187 612 187 573V174Q187 131 220 131Q254 131 254 173V311H208V448H412V0H305Q304 6 302 15T297 34T291 53T285 69Q278 57 268 43T242 18T208 -2T163 -10H155Z" />
<glyph unicode="&#x11d;" glyph-name="gcircumflex" horiz-adv-x="396" d="M328 561H219L195 626L170 561H63L130 707H260L328 561ZM221 59Q214 48 204 36T182 14T154 -3T120 -10Q75 -10 45 22T15 110V414Q15 440 21 463T39 504T69 532T112 542H115Q153 542 178
520T223 473V538H381V-57Q381 -86 372 -111T342 -154T291 -184T214 -195H183Q138 -195 107 -187T57 -163T30 -128T22 -84V-21H177V-57Q177 -68 181 -73T197 -79H200Q212 -79 216 -73T221 -55V59ZM221 391Q221 402 217 411T199 421Q185 421 181 413T177 392V136Q177
124 181 115T199 106Q210 106 215 115T221 136V391Z" />
<glyph unicode="&#x11e;" glyph-name="Gbreve" horiz-adv-x="427" d="M216 767H211Q154 767 122 798T90 880V888H189V882Q189 870 195 863T213 855H214Q226 855 232 862T238 882V888H336V880Q336 830 303 799T216 767ZM155 -10Q120 -10 94 3T51 40T25 94T16 159V565Q16
603 25 637T56 697T112 738T198 754H226Q280 754 315 739T370 698T397 641T405 575V489H245V573Q245 591 239 601T215 612Q187 612 187 573V174Q187 131 220 131Q254 131 254 173V311H208V448H412V0H305Q304 6 302 15T297 34T291 53T285 69Q278 57 268 43T242 18T208
-2T163 -10H155Z" />
<glyph unicode="&#x11f;" glyph-name="gbreve" horiz-adv-x="396" d="M221 59Q214 48 204 36T182 14T154 -3T120 -10Q75 -10 45 22T15 110V414Q15 440 21 463T39 504T69 532T112 542H115Q153 542 178 520T223 473V538H381V-57Q381 -86 372 -111T342 -154T291 -184T214
-195H183Q138 -195 107 -187T57 -163T30 -128T22 -84V-21H177V-57Q177 -68 181 -73T197 -79H200Q212 -79 216 -73T221 -55V59ZM221 391Q221 402 217 411T199 421Q185 421 181 413T177 392V136Q177 124 181 115T199 106Q210 106 215 115T221 136V391ZM198 559H194Q137
559 105 590T72 678V690H171V683Q171 648 195 648H196Q221 648 221 683V690H318V678Q318 621 285 590T198 559Z" />
<glyph unicode="&#x120;" glyph-name="Gdotaccent" horiz-adv-x="427" d="M296 771H136V908H296V771ZM155 -10Q120 -10 94 3T51 40T25 94T16 159V565Q16 603 25 637T56 697T112 738T198 754H226Q280 754 315 739T370 698T397 641T405 575V489H245V573Q245 591
239 601T215 612Q187 612 187 573V174Q187 131 220 131Q254 131 254 173V311H208V448H412V0H305Q304 6 302 15T297 34T291 53T285 69Q278 57 268 43T242 18T208 -2T163 -10H155Z" />
<glyph unicode="&#x121;" glyph-name="gdotaccent" horiz-adv-x="396" d="M221 59Q214 48 204 36T182 14T154 -3T120 -10Q75 -10 45 22T15 110V414Q15 440 21 463T39 504T69 532T112 542H115Q153 542 178 520T223 473V538H381V-57Q381 -86 372 -111T342 -154T291
-184T214 -195H183Q138 -195 107 -187T57 -163T30 -128T22 -84V-21H177V-57Q177 -68 181 -73T197 -79H200Q212 -79 216 -73T221 -55V59ZM221 391Q221 402 217 411T199 421Q185 421 181 413T177 392V136Q177 124 181 115T199 106Q210 106 215 115T221 136V391ZM276
561H116V702H276V561Z" />
<glyph unicode="&#x122;" glyph-name="uni0122" horiz-adv-x="427" d="M195 44Q207 75 210 115H157V232H283V155Q283 115 275 86T261 44H195ZM155 -10Q120 -10 94 3T51 40T25 94T16 159V565Q16 603 25 637T56 697T112 738T198 754H226Q280 754 315 739T370 698T397
641T405 575V489H245V573Q245 591 239 601T215 612Q187 612 187 573V174Q187 131 220 131Q254 131 254 173V311H208V448H412V0H305Q304 6 302 15T297 34T291 53T285 69Q278 57 268 43T242 18T208 -2T163 -10H155Z" />
<glyph unicode="&#x123;" glyph-name="uni0123" horiz-adv-x="396" d="M218 749Q212 733 208 715T203 678H255V561H128V637Q128 677 137 706T151 749H218ZM221 59Q214 48 204 36T182 14T154 -3T120 -10Q75 -10 45 22T15 110V414Q15 440 21 463T39 504T69 532T112
542H115Q153 542 178 520T223 473V538H381V-57Q381 -86 372 -111T342 -154T291 -184T214 -195H183Q138 -195 107 -187T57 -163T30 -128T22 -84V-21H177V-57Q177 -68 181 -73T197 -79H200Q212 -79 216 -73T221 -55V59ZM221 391Q221 402 217 411T199 421Q185 421
181 413T177 392V136Q177 124 181 115T199 106Q210 106 215 115T221 136V391Z" />
<glyph unicode="&#x124;" glyph-name="Hcircumflex" horiz-adv-x="424" d="M183 0H18V744H183V474H240V744H405V0H240V300H183V0ZM346 767H238L211 814L185 767H77L147 890H275L346 767Z" />
<glyph unicode="&#x125;" glyph-name="hcircumflex" horiz-adv-x="399" d="M16 744H176V472Q193 498 220 520T286 543H292Q316 543 333 534T361 511T378 480T383 446V0H221V387Q221 398 217 406T198 415Q184 415 180 407T176 384V0H16V744ZM324 767H216L189 814L163
767H55L125 890H253L324 767Z" />
<glyph unicode="&#x126;" glyph-name="Hbar" horiz-adv-x="429" d="M-1 662H430V550H-1V662ZM185 0H20V744H185V474H242V744H407V0H242V300H185V0Z" />
<glyph unicode="&#x127;" glyph-name="hbar" horiz-adv-x="399" d="M-14 687H254V575H-14V687ZM16 744H176V472Q193 498 220 520T286 543H292Q316 543 333 534T361 511T378 480T383 446V0H221V387Q221 398 217 406T198 415Q184 415 180 407T176 384V0H16V744Z" />
<glyph unicode="&#x128;" glyph-name="Itilde" horiz-adv-x="201" d="M183 0H18V744H183V0ZM355 785Q344 790 338 792T326 795Q318 795 318 784V766H233V816Q233 851 249 871T294 891H295Q312 891 326 887T359 875Q373 869 378 867T389 864Q396 864 396 875V894H481V845Q481
809 464 790T420 770H418Q404 770 390 773T355 785Z" />
<glyph unicode="&#x129;" glyph-name="itilde" horiz-adv-x="191" d="M208 692V621Q208 595 195 579T155 562H153Q139 562 126 566T93 582Q83 588 79 590T69 593Q63 593 63 582V560H-15V626Q-15 656 -2 673T38 690H40Q54 690 67 686T99 671Q109 666 114 663T123
660Q129 660 129 670V692H208ZM176 0H16V538H176V0Z" />
<glyph unicode="&#x12a;" glyph-name="Imacron" horiz-adv-x="201" d="M183 0H18V744H183V0ZM247 874H467V774H247V874Z" />
<glyph unicode="&#x12b;" glyph-name="imacron" horiz-adv-x="191" d="M-3 669H194V570H-3V669ZM176 0H16V538H176V0Z" />
<glyph unicode="&#x12c;" glyph-name="Ibreve" horiz-adv-x="201" d="M183 0H18V744H183V0ZM360 764H355Q298 764 266 795T234 877V885H333V879Q333 867 339 860T357 852H358Q370 852 376 859T382 879V885H480V877Q480 827 447 796T360 764Z" />
<glyph unicode="&#x12d;" glyph-name="ibreve" horiz-adv-x="191" d="M98 559H94Q35 559 11 589T-14 665V690H78V674Q78 661 81 654T96 647Q115 647 115 674V690H205V665Q205 620 180 590T98 559ZM176 0H16V538H176V0Z" />
<glyph unicode="&#x12e;" glyph-name="Iogonek" horiz-adv-x="201" d="M183 0H18V744H183V0ZM287 -110Q287 -82 308 -56T369 0H440Q416 -29 407 -44T398 -76V-79Q398 -100 425 -100H440V-188H371Q334 -188 311 -171T287 -123V-110Z" />
<glyph unicode="&#x12f;" glyph-name="iogonek" horiz-adv-x="191" d="M176 0H16V538H176V0ZM176 561H16V702H176V561ZM279 -110Q279 -82 300 -56T361 0H432Q408 -29 399 -44T390 -76V-79Q390 -100 417 -100H432V-188H363Q326 -188 303 -171T279 -123V-110Z" />
<glyph unicode="&#x130;" glyph-name="Idotaccent" horiz-adv-x="201" d="M183 0H18V744H183V0ZM438 767H278V908H438V767Z" />
<glyph unicode="&#x131;" glyph-name="dotlessi" horiz-adv-x="191" d="M176 0H16V538H176V0Z" />
<glyph unicode="&#x132;" glyph-name="IJ" horiz-adv-x="596" d="M183 0H18V744H183V0ZM363 332V164Q363 138 385 138H387Q408 138 408 164V744H578V159Q578 81 537 36T412 -9H363Q282 -9 246 32T209 148V332H363Z" />
<glyph unicode="&#x133;" glyph-name="ij" horiz-adv-x="379" d="M176 0H16V538H176V0ZM176 561H16V702H176V561ZM363 561H203V702H363V561ZM186 -47Q195 -47 199 -43T203 -28V538H363V-107Q363 -145 341 -166T284 -188H141V-47H186Z" />
<glyph unicode="&#x134;" glyph-name="Jcircumflex" horiz-adv-x="399" d="M426 767H318L291 814L265 767H157L227 890H355L426 767ZM166 332V164Q166 138 188 138H190Q211 138 211 164V744H381V159Q381 81 340 36T215 -9H166Q85 -9 49 32T12 148V332H166Z" />
<glyph unicode="&#x135;" glyph-name="jcircumflex" horiz-adv-x="192" d="M211 561H113L93 630L74 561H-23L29 707H159L211 561ZM-1 -47Q8 -47 12 -43T16 -28V538H176V-107Q176 -145 154 -166T97 -188H-46V-47H-1Z" />
<glyph unicode="&#x136;" glyph-name="uni0136" horiz-adv-x="425" d="M196 -211Q208 -180 211 -140H158V-23H284V-100Q284 -140 276 -169T262 -211H196ZM183 0H18V744H183V481L260 744H424L323 412L430 0H257L183 297V0Z" />
<glyph unicode="&#x137;" glyph-name="uni0137" horiz-adv-x="391" d="M181 -211Q193 -180 196 -140H143V-23H269V-100Q269 -140 261 -169T247 -211H181ZM236 538H387L303 313L395 0H239L176 222V0H16V744H176V362L236 538Z" />
<glyph unicode="&#x139;" glyph-name="Lacute" horiz-adv-x="327" d="M341 890H471L421 767H295L341 890ZM183 744V158H318V0H18V744H183Z" />
<glyph unicode="&#x13a;" glyph-name="lacute" horiz-adv-x="191" d="M335 890H465L415 767H289L335 890ZM176 0H16V744H176V0Z" />
<glyph unicode="&#x13b;" glyph-name="uni013B" horiz-adv-x="327" d="M146 -211Q158 -180 161 -140H108V-23H234V-100Q234 -140 226 -169T212 -211H146ZM183 744V158H318V0H18V744H183Z" />
<glyph unicode="&#x13c;" glyph-name="uni013C" horiz-adv-x="191" d="M329 -211Q341 -180 344 -140H291V-23H417V-100Q417 -140 409 -169T395 -211H329ZM176 0H16V744H176V0Z" />
<glyph unicode="&#x13d;" glyph-name="Lcaron" horiz-adv-x="327" d="M204 744H308L297 586H198L204 744ZM183 744V158H318V0H18V744H183Z" />
<glyph unicode="&#x13e;" glyph-name="lcaron" horiz-adv-x="191" d="M196 744H300L289 586H190L196 744ZM176 0H16V744H176V0Z" />
<glyph unicode="&#x13f;" glyph-name="Ldot" horiz-adv-x="356" d="M346 307H205V468H346V307ZM183 744V158H318V0H18V744H183Z" />
<glyph unicode="&#x140;" glyph-name="ldot" horiz-adv-x="342" d="M336 306H194V467H336V306ZM176 0H16V744H176V0Z" />
<glyph unicode="&#x141;" glyph-name="Lslash" horiz-adv-x="342" d="M198 744V460L283 518V390L198 333V158H333V0H33V222L4 203V327L33 347V744H198Z" />
<glyph unicode="&#x142;" glyph-name="lslash" horiz-adv-x="222" d="M191 0H31V304L4 287V403L31 420V744H191V525L218 543V425L191 407V0Z" />
<glyph unicode="&#x143;" glyph-name="Nacute" horiz-adv-x="423" d="M195 890H325L275 767H149L195 890ZM178 744L263 384V744H404V0H259L161 388V0H18V744H178Z" />
<glyph unicode="&#x144;" glyph-name="nacute" horiz-adv-x="399" d="M183 707H311L261 561H137L183 707ZM16 538H174V470Q194 499 221 521T286 543H293Q320 543 337 533T364 507T379 474T383 443V0H221V386Q221 398 217 406T198 415Q184 415 180 406T176 383V0H16V538Z" />
<glyph unicode="&#x145;" glyph-name="uni0145" horiz-adv-x="423" d="M188 -211Q200 -180 203 -140H150V-23H276V-100Q276 -140 268 -169T254 -211H188ZM178 744L263 384V744H404V0H259L161 388V0H18V744H178Z" />
<glyph unicode="&#x146;" glyph-name="uni0146" horiz-adv-x="399" d="M175 -211Q187 -180 190 -140H137V-23H263V-100Q263 -140 255 -169T241 -211H175ZM16 538H174V470Q194 499 221 521T286 543H293Q320 543 337 533T364 507T379 474T383 443V0H221V386Q221
398 217 406T198 415Q184 415 180 406T176 383V0H16V538Z" />
<glyph unicode="&#x147;" glyph-name="Ncaron" horiz-adv-x="423" d="M79 890H188L213 842L239 890H348L277 767H150L79 890ZM178 744L263 384V744H404V0H259L161 388V0H18V744H178Z" />
<glyph unicode="&#x148;" glyph-name="ncaron" horiz-adv-x="399" d="M66 707H174L198 643L223 707H331L263 561H134L66 707ZM16 538H174V470Q194 499 221 521T286 543H293Q320 543 337 533T364 507T379 474T383 443V0H221V386Q221 398 217 406T198 415Q184 415
180 406T176 383V0H16V538Z" />
<glyph unicode="&#x149;" glyph-name="napostrophe" horiz-adv-x="516" d="M285 509Q292 529 299 555T308 604H259V744H390V636Q390 595 380 561T361 509H285ZM133 538H291V470Q311 499 338 521T403 543H410Q437 543 454 533T481 507T496 474T500 443V0H338V386Q338
398 334 406T315 415Q301 415 297 406T293 383V0H133V538Z" />
<glyph unicode="&#x14a;" glyph-name="Eng" horiz-adv-x="421" d="M312 -188H202V-56H243Q265 -56 265 -30V0L160 390V0H18V744H177L263 371V744H403V-86Q403 -134 378 -161T312 -188Z" />
<glyph unicode="&#x14b;" glyph-name="eng" horiz-adv-x="399" d="M221 386Q221 398 217 406T198 415Q184 415 180 406T176 383V0H16V538H172V468Q195 499 222 521T286 543H296Q321 543 338 533T365 507T379 474T383 443V-107Q383 -145 361 -166T304 -188H187V-48H204Q213
-48 217 -44T221 -28V386Z" />
<glyph unicode="&#x14c;" glyph-name="Omacron" horiz-adv-x="433" d="M106 877H326V777H106V877ZM418 191Q418 94 369 42T234 -11H202Q111 -11 64 41T16 191V544Q16 640 59 697T201 754H233Q282 754 317 739T375 697T407 631T418 544V191ZM247 561Q247 603 217
603Q200 603 194 593T187 561V180Q187 163 194 153T218 143Q234 143 240 153T247 180V561Z" />
<glyph unicode="&#x14d;" glyph-name="omacron" horiz-adv-x="396" d="M88 674H308V574H88V674ZM13 167V372Q13 460 57 504T182 549H213Q296 549 339 505T383 373V168Q383 83 338 36T213 -11H181Q94 -11 54 35T13 167ZM174 390V152Q174 137 178 128T197 118Q211
118 216 127T221 152V390Q221 405 216 414T197 424Q183 424 179 415T174 390Z" />
<glyph unicode="&#x14e;" glyph-name="Obreve" horiz-adv-x="433" d="M219 767H214Q157 767 125 798T93 880V888H192V882Q192 870 198 863T216 855H217Q229 855 235 862T241 882V888H339V880Q339 830 306 799T219 767ZM418 191Q418 94 369 42T234 -11H202Q111
-11 64 41T16 191V544Q16 640 59 697T201 754H233Q282 754 317 739T375 697T407 631T418 544V191ZM247 561Q247 603 217 603Q200 603 194 593T187 561V180Q187 163 194 153T218 143Q234 143 240 153T247 180V561Z" />
<glyph unicode="&#x14f;" glyph-name="obreve" horiz-adv-x="396" d="M13 167V372Q13 460 57 504T182 549H213Q296 549 339 505T383 373V168Q383 83 338 36T213 -11H181Q94 -11 54 35T13 167ZM174 390V152Q174 137 178 128T197 118Q211 118 216 127T221 152V390Q221
405 216 414T197 424Q183 424 179 415T174 390ZM200 563H196Q139 563 107 594T74 682V694H173V687Q173 652 197 652H198Q223 652 223 687V694H320V682Q320 625 287 594T200 563Z" />
<glyph unicode="&#x150;" glyph-name="Ohungarumlaut" horiz-adv-x="433" d="M130 890H238L208 771H103L130 890ZM261 890H369L337 771H231L261 890ZM418 191Q418 94 369 42T234 -11H202Q111 -11 64 41T16 191V544Q16 640 59 697T201 754H233Q282 754 317 739T375
697T407 631T418 544V191ZM247 561Q247 603 217 603Q200 603 194 593T187 561V180Q187 163 194 153T218 143Q234 143 240 153T247 180V561Z" />
<glyph unicode="&#x151;" glyph-name="ohungarumlaut" horiz-adv-x="396" d="M117 707H223L194 566H89L117 707ZM245 707H351L320 566H216L245 707ZM13 167V372Q13 460 57 504T182 549H213Q296 549 339 505T383 373V168Q383 83 338 36T213 -11H181Q94 -11 54 35T13
167ZM174 390V152Q174 137 178 128T197 118Q211 118 216 127T221 152V390Q221 405 216 414T197 424Q183 424 179 415T174 390Z" />
<glyph unicode="&#x152;" glyph-name="OE" horiz-adv-x="559" d="M16 558Q16 599 23 634T47 696T89 737T151 752H154Q176 752 192 747T221 733T240 716T252 701V744H542V589H412V463H514V305H412V157H550V0H252V44Q247 36 239 27T218 9T189 -4T153 -10H149Q86
-10 51 39T16 186V558ZM245 559Q245 580 239 592T217 604Q200 604 194 592T187 559V186Q187 164 193 153T217 141Q233 141 239 153T245 186V559Z" />
<glyph unicode="&#x153;" glyph-name="oe" horiz-adv-x="585" d="M378 251V138Q378 108 400 108Q422 108 422 138V214H573V139Q573 66 530 27T415 -12H385Q353 -12 330 -2T296 19Q284 10 262 -1T204 -13H181Q93 -13 53 34T13 166V372Q13 463 57 506T180 550H206Q241
550 265 540T300 518Q311 529 333 539T387 549H417Q487 549 530 511T573 389V251H378ZM174 152Q174 136 178 127T197 117Q211 117 216 126T221 152V390Q221 405 217 414T197 424Q183 424 179 415T174 390V152ZM378 349H423V412Q423 427 419 434T400 442Q386 442
382 434T378 408V349Z" />
<glyph unicode="&#x154;" glyph-name="Racute" horiz-adv-x="417" d="M183 890H313L263 767H137L183 890ZM183 445H204Q220 445 227 453T234 481V581Q234 601 229 608T207 616H183V445ZM183 0H18V744H277Q332 744 366 712T400 613V515Q400 489 394 470T379 438T358
416T335 402Q345 398 356 390T378 370T394 342T400 305V59Q400 38 403 26T410 5V0H247Q242 7 238 20T234 53V269Q234 288 229 296T206 305H183V0Z" />
<glyph unicode="&#x155;" glyph-name="racute" horiz-adv-x="359" d="M176 707H304L254 561H130L176 707ZM174 469Q179 478 187 490T206 514T234 533T270 541H279Q315 541 332 521T349 468V274H205V396Q205 407 202 412T190 418Q176 418 176 396V0H16V538H174V469Z" />
<glyph unicode="&#x156;" glyph-name="uni0156" horiz-adv-x="417" d="M188 -211Q200 -180 203 -140H150V-23H276V-100Q276 -140 268 -169T254 -211H188ZM183 445H204Q220 445 227 453T234 481V581Q234 601 229 608T207 616H183V445ZM183 0H18V744H277Q332 744
366 712T400 613V515Q400 489 394 470T379 438T358 416T335 402Q345 398 356 390T378 370T394 342T400 305V59Q400 38 403 26T410 5V0H247Q242 7 238 20T234 53V269Q234 288 229 296T206 305H183V0Z" />
<glyph unicode="&#x157;" glyph-name="uni0157" horiz-adv-x="359" d="M327 -211Q339 -180 342 -140H289V-23H415V-100Q415 -140 407 -169T393 -211H327ZM174 469Q179 478 187 490T206 514T234 533T270 541H279Q315 541 332 521T349 468V274H205V396Q205 407 202
412T190 418Q176 418 176 396V0H16V538H174V469Z" />
<glyph unicode="&#x158;" glyph-name="Rcaron" horiz-adv-x="417" d="M63 890H172L197 842L223 890H332L261 767H134L63 890ZM183 445H204Q220 445 227 453T234 481V581Q234 601 229 608T207 616H183V445ZM183 0H18V744H277Q332 744 366 712T400 613V515Q400 489
394 470T379 438T358 416T335 402Q345 398 356 390T378 370T394 342T400 305V59Q400 38 403 26T410 5V0H247Q242 7 238 20T234 53V269Q234 288 229 296T206 305H183V0Z" />
<glyph unicode="&#x159;" glyph-name="rcaron" horiz-adv-x="359" d="M59 707H167L191 643L216 707H324L256 561H127L59 707ZM174 469Q179 478 187 490T206 514T234 533T270 541H279Q315 541 332 521T349 468V274H205V396Q205 407 202 412T190 418Q176 418 176
396V0H16V538H174V469Z" />
<glyph unicode="&#x15a;" glyph-name="Sacute" horiz-adv-x="411" d="M191 890H321L272 771H145L191 890ZM227 754Q318 754 355 713T392 602V513H233V593Q233 608 228 616T208 625Q194 625 189 617T183 592V573Q183 550 190 534T219 497L304 421Q332 395 351 372T381
326T397 277T402 221V184Q402 141 391 105T358 44T301 4T218 -10H182Q9 -10 9 154V273H171V170Q171 151 177 141T199 131Q214 131 220 142T226 175V195Q226 211 225 223T220 245T208 266T187 289L101 366Q54 408 35 454T16 558V593Q16 667 59 710T190 754H227Z"
/>
<glyph unicode="&#x15b;" glyph-name="sacute" horiz-adv-x="350" d="M161 707H288L239 566H115L161 707ZM336 438V376H196V425Q196 436 193 442T178 449Q167 449 163 443T159 425V411Q159 396 163 388T181 369L261 309Q286 291 302 273T327 237T340 198T344 155V137Q344
69 305 29T190 -11H154Q81 -11 44 22T7 116V191H150V128Q150 102 171 102H172Q190 102 190 128V144Q190 162 185 174T164 198L88 253Q65 269 50 286T27 322T16 359T13 399V417Q13 480 49 514T160 549H195Q336 549 336 438Z" />
<glyph unicode="&#x15c;" glyph-name="Scircumflex" horiz-adv-x="411" d="M345 771H235L208 815L183 771H74L142 890H276L345 771ZM227 754Q318 754 355 713T392 602V513H233V593Q233 608 228 616T208 625Q194 625 189 617T183 592V573Q183 550 190 534T219 497L304
421Q332 395 351 372T381 326T397 277T402 221V184Q402 141 391 105T358 44T301 4T218 -10H182Q9 -10 9 154V273H171V170Q171 151 177 141T199 131Q214 131 220 142T226 175V195Q226 211 225 223T220 245T208 266T187 289L101 366Q54 408 35 454T16 558V593Q16
667 59 710T190 754H227Z" />
<glyph unicode="&#x15d;" glyph-name="scircumflex" horiz-adv-x="350" d="M311 566H203L178 626L154 566H47L114 707H243L311 566ZM336 438V376H196V425Q196 436 193 442T178 449Q167 449 163 443T159 425V411Q159 396 163 388T181 369L261 309Q286 291 302 273T327
237T340 198T344 155V137Q344 69 305 29T190 -11H154Q81 -11 44 22T7 116V191H150V128Q150 102 171 102H172Q190 102 190 128V144Q190 162 185 174T164 198L88 253Q65 269 50 286T27 322T16 359T13 399V417Q13 480 49 514T160 549H195Q336 549 336 438Z" />
<glyph unicode="&#x15e;" glyph-name="uni015E" horiz-adv-x="411" d="M227 754Q318 754 355 713T392 602V513H233V593Q233 608 228 616T208 625Q194 625 189 617T183 592V573Q183 550 190 534T219 497L304 421Q332 395 351 372T381 326T397 277T402 221V184Q402
141 391 105T358 44T301 4T218 -10H182Q9 -10 9 154V273H171V170Q171 151 177 141T199 131Q214 131 220 142T226 175V195Q226 211 225 223T220 245T208 266T187 289L101 366Q54 408 35 454T16 558V593Q16 667 59 710T190 754H227ZM199 -196H124V-125H182Q203 -125
203 -110V-109Q203 -95 182 -95H139V0H207V-35H212Q301 -37 301 -110V-113Q301 -154 274 -175T199 -196Z" />
<glyph unicode="&#x15f;" glyph-name="uni015F" horiz-adv-x="350" d="M336 438V376H196V425Q196 436 193 442T178 449Q167 449 163 443T159 425V411Q159 396 163 388T181 369L261 309Q286 291 302 273T327 237T340 198T344 155V137Q344 69 305 29T190 -11H154Q81
-11 44 22T7 116V191H150V128Q150 102 171 102H172Q190 102 190 128V144Q190 162 185 174T164 198L88 253Q65 269 50 286T27 322T16 359T13 399V417Q13 480 49 514T160 549H195Q336 549 336 438ZM171 -196H96V-125H154Q175 -125 175 -110V-109Q175 -95 154 -95H111V0H179V-35H184Q273
-37 273 -110V-113Q273 -154 246 -175T171 -196Z" />
<glyph unicode="&#x160;" glyph-name="Scaron" horiz-adv-x="411" d="M227 754Q318 754 355 713T392 602V513H233V593Q233 608 228 616T208 625Q194 625 189 617T183 592V573Q183 550 190 534T219 497L304 421Q332 395 351 372T381 326T397 277T402 221V184Q402
141 391 105T358 44T301 4T218 -10H182Q9 -10 9 154V273H171V170Q171 151 177 141T199 131Q214 131 220 142T226 175V195Q226 211 225 223T220 245T208 266T187 289L101 366Q54 408 35 454T16 558V593Q16 667 59 710T190 754H227ZM77 890H186L211 842L237 890H346L275
767H148L77 890Z" />
<glyph unicode="&#x161;" glyph-name="scaron" horiz-adv-x="350" d="M336 438V376H196V425Q196 436 193 442T178 449Q167 449 163 443T159 425V411Q159 396 163 388T181 369L261 309Q286 291 302 273T327 237T340 198T344 155V137Q344 69 305 29T190 -11H154Q81
-11 44 22T7 116V191H150V128Q150 102 171 102H172Q190 102 190 128V144Q190 162 185 174T164 198L88 253Q65 269 50 286T27 322T16 359T13 399V417Q13 480 49 514T160 549H195Q336 549 336 438ZM47 707H155L179 643L204 707H312L244 561H115L47 707Z" />
<glyph unicode="&#x162;" glyph-name="Tcommaaccent" horiz-adv-x="368" d="M159 -211Q171 -180 174 -140H121V-23H247V-100Q247 -140 239 -169T225 -211H159ZM359 744V590H266V0H102V590H9V744H359Z" />
<glyph unicode="&#x163;" glyph-name="tcommaaccent" horiz-adv-x="296" d="M162 -211Q174 -180 177 -140H124V-23H250V-100Q250 -140 242 -169T228 -211H162ZM131 0Q106 0 87 18T67 71V403H6V538H67V716H227V538H286V403H227V158Q227 147 230 143T245 138H286V0H131Z" />
<glyph unicode="&#x164;" glyph-name="Tcaron" horiz-adv-x="368" d="M49 890H158L183 842L209 890H318L247 767H120L49 890ZM359 744V590H266V0H102V590H9V744H359Z" />
<glyph unicode="&#x165;" glyph-name="tcaron" horiz-adv-x="296" d="M247 744H351L340 586H241L247 744ZM131 0Q106 0 87 18T67 71V403H6V538H67V716H227V538H286V403H227V158Q227 147 230 143T245 138H286V0H131Z" />
<glyph unicode="&#x166;" glyph-name="Tbar" horiz-adv-x="368" d="M36 330V462H331V330H36ZM359 744V590H266V0H102V590H9V744H359Z" />
<glyph unicode="&#x167;" glyph-name="tbar" horiz-adv-x="296" d="M132 0Q106 0 87 18T67 71V230H6V345H67V403H6V538H67V716H227V538H286V403H227V345H286V230H227V158Q227 147 230 143T245 138H286V0H132Z" />
<glyph unicode="&#x168;" glyph-name="Utilde" horiz-adv-x="430" d="M216 785Q205 790 199 792T187 795Q179 795 179 784V766H94V816Q94 851 110 871T155 891H156Q173 891 187 887T220 875Q234 869 239 867T250 864Q257 864 257 875V894H342V845Q342 809 325
790T281 770H279Q265 770 251 773T216 785ZM18 744H188V185Q188 147 215 147Q230 147 236 157T242 185V744H412V177Q412 92 365 40T230 -12H198Q105 -12 62 39T18 177V744Z" />
<glyph unicode="&#x169;" glyph-name="utilde" horiz-adv-x="395" d="M379 0H222V69Q202 40 176 18T110 -4H105Q81 -4 64 6T37 31T21 63T16 97V538H177V152Q177 141 181 132T198 123Q212 123 216 132T220 154V538H379V0ZM322 692V626Q322 598 307 580T261 561H259Q244
561 231 565T196 581Q185 586 180 589T169 592Q162 592 162 580V560H76V622Q76 652 91 671T138 691H139Q155 691 168 687T202 672Q213 667 219 664T230 661Q236 661 236 672V692H322Z" />
<glyph unicode="&#x16a;" glyph-name="Umacron" horiz-adv-x="430" d="M18 744H188V185Q188 147 215 147Q230 147 236 157T242 185V744H412V177Q412 92 365 40T230 -12H198Q105 -12 62 39T18 177V744ZM104 874H324V774H104V874Z" />
<glyph unicode="&#x16b;" glyph-name="umacron" horiz-adv-x="395" d="M379 0H222V69Q202 40 176 18T110 -4H105Q81 -4 64 6T37 31T21 63T16 97V538H177V152Q177 141 181 132T198 123Q212 123 216 132T220 154V538H379V0ZM88 670H308V570H88V670Z" />
<glyph unicode="&#x16c;" glyph-name="Ubreve" horiz-adv-x="430" d="M18 744H188V185Q188 147 215 147Q230 147 236 157T242 185V744H412V177Q412 92 365 40T230 -12H198Q105 -12 62 39T18 177V744ZM217 764H212Q155 764 123 795T91 877V885H190V879Q190 867
196 860T214 852H215Q227 852 233 859T239 879V885H337V877Q337 827 304 796T217 764Z" />
<glyph unicode="&#x16d;" glyph-name="ubreve" horiz-adv-x="395" d="M379 0H222V69Q202 40 176 18T110 -4H105Q81 -4 64 6T37 31T21 63T16 97V538H177V152Q177 141 181 132T198 123Q212 123 216 132T220 154V538H379V0ZM200 559H196Q139 559 107 590T74 678V690H173V683Q173
648 197 648H198Q223 648 223 683V690H320V678Q320 621 287 590T200 559Z" />
<glyph unicode="&#x16e;" glyph-name="Uring" horiz-adv-x="430" d="M18 744H188V185Q188 147 215 147Q230 147 236 157T242 185V744H412V177Q412 92 365 40T230 -12H198Q105 -12 62 39T18 177V744ZM180 845Q180 830 189 820T214 810Q229 810 238 820T248 845Q248
859 239 869T214 879Q199 879 190 869T180 845ZM214 928Q251 928 275 905T300 845Q300 809 276 786T214 762Q177 762 153 785T128 845Q128 882 152 905T214 928Z" />
<glyph unicode="&#x16f;" glyph-name="uring" horiz-adv-x="395" d="M197 607Q212 607 221 617T231 642Q231 656 222 666T197 676Q182 676 173 666T163 642Q163 627 172 617T197 607ZM197 559Q160 559 136 582T111 642Q111 679 135 702T197 725Q234 725 258 702T283
642Q283 606 259 583T197 559ZM379 0H222V69Q202 40 176 18T110 -4H105Q81 -4 64 6T37 31T21 63T16 97V538H177V152Q177 141 181 132T198 123Q212 123 216 132T220 154V538H379V0Z" />
<glyph unicode="&#x170;" glyph-name="Uhungarumlaut" horiz-adv-x="430" d="M125 890H234L204 767H98L125 890ZM256 890H365L332 767H227L256 890ZM18 744H188V185Q188 147 215 147Q230 147 236 157T242 185V744H412V177Q412 92 365 40T230 -12H198Q105 -12 62
39T18 177V744Z" />
<glyph unicode="&#x171;" glyph-name="uhungarumlaut" horiz-adv-x="395" d="M379 0H222V69Q202 40 176 18T110 -4H105Q81 -4 64 6T37 31T21 63T16 97V538H177V152Q177 141 181 132T198 123Q212 123 216 132T220 154V538H379V0ZM113 707H219L189 561H84L113 707ZM240
707H347L315 561H211L240 707Z" />
<glyph unicode="&#x172;" glyph-name="Uogonek" horiz-adv-x="430" d="M178 -110Q178 -84 196 -60T249 -11Q244 -12 240 -12T230 -12H198Q105 -12 62 39T18 177V744H188V185Q188 147 215 147Q230 147 236 157T242 185V744H412V177Q412 142 405 117T387 71T362
33T332 0Q309 -26 300 -43T290 -76V-79Q290 -100 316 -100H332V-188H262Q226 -188 202 -171T178 -123V-110V-110Z" />
<glyph unicode="&#x173;" glyph-name="uogonek" horiz-adv-x="395" d="M226 -110Q226 -82 247 -56T308 0H379Q355 -29 346 -44T337 -76V-79Q337 -100 364 -100H379V-188H310Q273 -188 250 -171T226 -123V-110ZM379 0H222V69Q202 40 176 18T110 -4H105Q81 -4 64
6T37 31T21 63T16 97V538H177V152Q177 141 181 132T198 123Q212 123 216 132T220 154V538H379V0Z" />
<glyph unicode="&#x174;" glyph-name="Wcircumflex" horiz-adv-x="629" d="M449 767H341L314 814L288 767H180L250 890H378L449 767ZM397 744L437 287L472 744H630L535 0H348L316 394L284 0H93L-1 744H168L202 283L242 744H397Z" />
<glyph unicode="&#x175;" glyph-name="wcircumflex" horiz-adv-x="567" d="M417 561H308L284 626L259 561H152L219 707H349L417 561ZM83 0L-2 538H156L184 215L216 538H357L388 210L417 538H569L484 0H314L285 271L256 0H83Z" />
<glyph unicode="&#x176;" glyph-name="Ycircumflex" horiz-adv-x="382" d="M278 281V0H114V278L-6 744H159L200 499L239 744H387L278 281ZM332 767H224L197 814L171 767H63L133 890H261L332 767Z" />
<glyph unicode="&#x177;" glyph-name="ycircumflex" horiz-adv-x="369" d="M-2 538H156L189 252L217 538H372L249 -106Q240 -153 217 -170T168 -188H27V-52H84Q95 -52 98 -47T103 -30L104 -17Q105 -9 104 -1T100 22L-2 538ZM317 561H208L184 626L159 561H52L119
707H249L317 561Z" />
<glyph unicode="&#x178;" glyph-name="Ydieresis" horiz-adv-x="382" d="M278 281V0H114V278L-6 744H159L200 499L239 744H387L278 281ZM328 767H210V885H328V767ZM186 767H68V885H186V767Z" />
<glyph unicode="&#x179;" glyph-name="Zacute" horiz-adv-x="368" d="M162 890H292L242 767H116L162 890ZM349 744V604L189 154H358V0H9V141L168 592H18V744H349Z" />
<glyph unicode="&#x17a;" glyph-name="zacute" horiz-adv-x="310" d="M138 707H266L216 561H92L138 707ZM297 538V417L176 135H302V0H7V121L131 409H15V538H297Z" />
<glyph unicode="&#x17b;" glyph-name="Zdotaccent" horiz-adv-x="368" d="M349 744V604L189 154H358V0H9V141L168 592H18V744H349ZM264 767H104V908H264V767Z" />
<glyph unicode="&#x17c;" glyph-name="zdotaccent" horiz-adv-x="310" d="M297 538V417L176 135H302V0H7V121L131 409H15V538H297ZM494 561H334V702H494V561Z" />
<glyph unicode="&#x17d;" glyph-name="Zcaron" horiz-adv-x="368" d="M349 744V604L189 154H358V0H9V141L168 592H18V744H349ZM49 890H158L183 842L209 890H318L247 767H120L49 890Z" />
<glyph unicode="&#x17e;" glyph-name="zcaron" horiz-adv-x="310" d="M297 538V417L176 135H302V0H7V121L131 409H15V538H297ZM280 707H388L412 643L437 707H545L477 561H348L280 707Z" />
<glyph unicode="&#x192;" glyph-name="uni0192" horiz-adv-x="301" d="M61 352H6V484H67L75 647Q79 744 183 744H291V615H254Q242 615 238 611T231 592L226 484H291V352H219L193 -188H35L61 352Z" />
<glyph unicode="&#x1fa;" glyph-name="Aringacute" horiz-adv-x="397" d="M228 109H152L141 0H-2L93 744H296L400 0H240L228 109ZM167 256H213L190 482L167 256ZM179 1064H309L259 941H133L179 1064ZM159 845Q159 830 168 820T193 810Q208 810 217 820T227 845Q227
859 218 869T193 879Q178 879 169 869T159 845ZM193 928Q230 928 254 905T279 845Q279 809 255 786T193 762Q156 762 132 785T107 845Q107 882 131 905T193 928Z" />
<glyph unicode="&#x1fb;" glyph-name="aringacute" horiz-adv-x="388" d="M202 259Q197 256 189 251T174 238Q168 230 166 222T163 199V136Q163 124 167 117T182 110Q193 110 197 117T202 136V259ZM11 202Q11 245 28 272T79 317Q89 322 105 329T139 344T170 357T191
367Q197 370 199 373T202 387V415Q202 439 183 439H180Q168 439 164 433T160 415V365H18V426Q18 479 54 513T170 547H192Q278 547 317 515T356 420V143Q356 136 359 134T371 131H385V0H244Q203 0 203 61Q197 51 187 39T165 17T136 1T100 -6H96Q75 -6 59 2T33 25T17
57T11 96V202ZM169 887H297L247 741H123L169 887ZM182 609Q197 609 206 619T216 644Q216 658 207 668T182 678Q167 678 158 668T148 644Q148 629 157 619T182 609ZM182 561Q145 561 121 584T96 644Q96 681 120 704T182 727Q219 727 243 704T268 644Q268 608 244
585T182 561Z" />
<glyph unicode="&#x1fc;" glyph-name="AEacute" horiz-adv-x="552" d="M312 890H442L392 767H266L312 890ZM242 0V117H170L152 0H-6L134 744H535V589H406V463H507V305H406V157H543V0H242ZM242 263V568L193 263H242Z" />
<glyph unicode="&#x1fd;" glyph-name="aeacute" horiz-adv-x="563" d="M268 707H396L346 561H222L268 707ZM219 65Q202 39 173 17T102 -6H99Q77 -6 61 2T33 25T17 58T11 97V187Q11 231 28 258T79 303Q89 309 105 316T139 330T170 343T191 353Q197 356 199 359T202
373V415Q202 439 183 439H179Q160 439 160 415V351H18V426Q18 479 54 513T169 547H189Q233 547 255 536T286 518Q294 526 315 537T377 549H392Q428 549 457 540T508 512T540 461T552 384V250H357V138Q358 121 362 115T378 108Q392 108 396 116T400 138V214H552V143Q552
71 511 30T393 -11H363Q328 -11 303 -4T262 14T235 38T219 65ZM202 246Q197 243 189 238T174 225Q167 217 165 209T163 185V136Q163 110 182 110Q193 110 197 117T202 136V246ZM357 349H402V411Q402 427 398 435T380 443Q366 443 362 435T357 412V349Z" />
<glyph unicode="&#x1fe;" glyph-name="Oslashacute" horiz-adv-x="429" d="M196 890H325L277 771H150L196 890ZM413 191Q413 94 364 42T229 -11H202Q136 -11 94 25L82 0H0L38 84Q27 106 22 132T16 191V544Q16 640 59 697T201 754H227Q293 754 332 721L343 744H426L389
661Q400 639 406 611T413 545V191ZM215 142Q233 142 239 152T246 180V375L183 212V180Q183 163 190 153T215 142ZM215 604Q197 604 190 594T183 561V378L246 541V561Q246 604 215 604Z" />
<glyph unicode="&#x1ff;" glyph-name="oslashacute" horiz-adv-x="388" d="M176 707H304L255 566H130L176 707ZM13 166V372Q13 463 58 506T185 549H203Q235 549 259 542T303 520L314 538H391L351 471Q362 452 368 427T374 373V167Q374 81 329 35T201 -11H185Q152
-11 127 -3T83 18L72 0H-4L35 66Q13 106 13 166ZM219 390Q219 404 215 415T193 426Q178 426 174 415T169 390V278L219 377V390ZM193 117Q209 117 214 127T219 152V263L169 165V152Q169 136 174 127T193 117Z" />
<glyph unicode="&#x218;" glyph-name="uni0218" horiz-adv-x="411" d="M180 42Q192 73 195 113H142V230H268V153Q268 113 260 84T246 42H180ZM227 754Q318 754 355 713T392 602V513H233V593Q233 608 228 616T208 625Q194 625 189 617T183 592V573Q183 550 190
534T219 497L304 421Q332 395 351 372T381 326T397 277T402 221V184Q402 141 391 105T358 44T301 4T218 -10H182Q9 -10 9 154V273H171V170Q171 151 177 141T199 131Q214 131 220 142T226 175V195Q226 211 225 223T220 245T208 266T187 289L101 366Q54 408 35 454T16
558V593Q16 667 59 710T190 754H227Z" />
<glyph unicode="&#x219;" glyph-name="uni0219" horiz-adv-x="350" d="M149 42Q161 73 164 113H111V230H237V153Q237 113 229 84T215 42H149ZM336 438V376H196V425Q196 436 193 442T178 449Q167 449 163 443T159 425V411Q159 396 163 388T181 369L261 309Q286
291 302 273T327 237T340 198T344 155V137Q344 69 305 29T190 -11H154Q81 -11 44 22T7 116V191H150V128Q150 102 171 102H172Q190 102 190 128V144Q190 162 185 174T164 198L88 253Q65 269 50 286T27 322T16 359T13 399V417Q13 480 49 514T160 549H195Q336 549
336 438Z" />
<glyph unicode="&#x21a;" glyph-name="uni021A" horiz-adv-x="368" d="M159 -211Q171 -180 174 -140H121V-23H247V-100Q247 -140 239 -169T225 -211H159ZM359 744V590H266V0H102V590H9V744H359Z" />
<glyph unicode="&#x21b;" glyph-name="uni021B" horiz-adv-x="296" d="M162 -211Q174 -180 177 -140H124V-23H250V-100Q250 -140 242 -169T228 -211H162ZM131 0Q106 0 87 18T67 71V403H6V538H67V716H227V538H286V403H227V158Q227 147 230 143T245 138H286V0H131Z" />
<glyph unicode="&#x237;" glyph-name="uni0237" horiz-adv-x="192" d="M-1 -47Q8 -47 12 -43T16 -28V538H176V-107Q176 -145 154 -166T97 -188H-46V-47H-1Z" />
<glyph unicode="&#x2c6;" glyph-name="circumflex" horiz-adv-x="342" d="M304 561H195L171 626L146 561H39L106 707H236L304 561Z" />
<glyph unicode="&#x2c7;" glyph-name="caron" horiz-adv-x="342" d="M39 707H147L171 643L196 707H304L236 561H107L39 707Z" />
<glyph unicode="&#x2d8;" glyph-name="breve" horiz-adv-x="342" d="M174 559H170Q113 559 81 590T48 678V690H147V683Q147 648 171 648H172Q197 648 197 683V690H294V678Q294 621 261 590T174 559Z" />
<glyph unicode="&#x2d9;" glyph-name="dotaccent" horiz-adv-x="342" d="M251 561H91V702H251V561Z" />
<glyph unicode="&#x2da;" glyph-name="ring" horiz-adv-x="342" d="M171 607Q186 607 195 617T205 642Q205 656 196 666T171 676Q156 676 147 666T137 642Q137 627 146 617T171 607ZM171 559Q134 559 110 582T85 642Q85 679 109 702T171 725Q208 725 232 702T257
642Q257 606 233 583T171 559Z" />
<glyph unicode="&#x2db;" glyph-name="ogonek" horiz-adv-x="342" d="M94 -110Q94 -82 115 -56T176 0H247Q223 -29 214 -44T205 -76V-79Q205 -100 232 -100H247V-188H178Q141 -188 118 -171T94 -123V-110Z" />
<glyph unicode="&#x2dc;" glyph-name="tilde" horiz-adv-x="342" d="M294 692V626Q294 598 279 580T233 561H231Q216 561 203 565T168 581Q157 586 152 589T141 592Q134 592 134 580V560H48V622Q48 652 63 671T110 691H111Q127 691 140 687T174 672Q185 667 191
664T202 661Q208 661 208 672V692H294Z" />
<glyph unicode="&#x2dd;" glyph-name="hungarumlaut" horiz-adv-x="342" d="M69 707H175L145 561H40L69 707ZM196 707H303L271 561H167L196 707Z" />
</font>
</defs>
</svg>
